<mxfile host="app.diagrams.net" modified="2022-12-07T20:35:21.865Z" agent="5.0 (Windows NT 10.0; Win64; x64) AppleWebKit/537.36 (KHTML, like Gecko) Chrome/106.0.0.0 Safari/537.36" etag="4gGDn_UOEDnQgm81h6Ty" version="20.6.0" type="github">
  <diagram id="h0MG5Arb35yvRBbv_o0n" name="Page-1">
    <mxGraphModel dx="1387" dy="778" grid="1" gridSize="10" guides="0" tooltips="1" connect="1" arrows="1" fold="1" page="1" pageScale="1" pageWidth="850" pageHeight="1100" math="0" shadow="0">
      <root>
        <mxCell id="0" />
        <mxCell id="1" parent="0" />
        <mxCell id="G5toYubQoZsCjo8l9rVy-4" value="VPC&lt;br&gt;asrc-irad-vpc-common" style="points=[[0,0],[0.25,0],[0.5,0],[0.75,0],[1,0],[1,0.25],[1,0.5],[1,0.75],[1,1],[0.75,1],[0.5,1],[0.25,1],[0,1],[0,0.75],[0,0.5],[0,0.25]];outlineConnect=0;gradientColor=none;html=1;whiteSpace=wrap;fontSize=12;fontStyle=0;container=0;pointerEvents=0;collapsible=0;recursiveResize=0;shape=mxgraph.aws4.group;grIcon=mxgraph.aws4.group_vpc;strokeColor=#248814;fillColor=none;verticalAlign=top;align=left;spacingLeft=30;fontColor=#000000;dashed=0;strokeWidth=2;" parent="1" vertex="1">
          <mxGeometry x="140" y="160" width="940" height="610" as="geometry" />
        </mxCell>
        <mxCell id="G5toYubQoZsCjo8l9rVy-8" value="Availability Zone A" style="fillColor=none;strokeColor=#147EBA;dashed=1;verticalAlign=top;fontStyle=0;fontColor=#000000;strokeWidth=2;" parent="1" vertex="1">
          <mxGeometry x="1020" y="100" width="300" height="715" as="geometry" />
        </mxCell>
        <mxCell id="G5toYubQoZsCjo8l9rVy-9" value="Availability Zone B" style="fillColor=none;strokeColor=#147EBA;dashed=1;verticalAlign=top;fontStyle=0;fontColor=#000000;strokeWidth=2;" parent="1" vertex="1">
          <mxGeometry x="700" y="105" width="300" height="715" as="geometry" />
        </mxCell>
        <mxCell id="G5toYubQoZsCjo8l9rVy-10" value="Public subnet" style="points=[[0,0],[0.25,0],[0.5,0],[0.75,0],[1,0],[1,0.25],[1,0.5],[1,0.75],[1,1],[0.75,1],[0.5,1],[0.25,1],[0,1],[0,0.75],[0,0.5],[0,0.25]];outlineConnect=0;gradientColor=none;html=1;whiteSpace=wrap;fontSize=12;fontStyle=0;container=1;pointerEvents=0;collapsible=0;recursiveResize=0;shape=mxgraph.aws4.group;grIcon=mxgraph.aws4.group_security_group;grStroke=0;strokeColor=#248814;fillColor=#E9F3E6;verticalAlign=top;align=left;spacingLeft=30;fontColor=#248814;dashed=0;strokeWidth=2;" parent="1" vertex="1">
          <mxGeometry x="220" y="210" width="280" height="190" as="geometry" />
        </mxCell>
        <mxCell id="2e-IZ0hc81l0EhctSPzu-13" value="Jumpbox" style="sketch=0;points=[[0,0,0],[0.25,0,0],[0.5,0,0],[0.75,0,0],[1,0,0],[0,1,0],[0.25,1,0],[0.5,1,0],[0.75,1,0],[1,1,0],[0,0.25,0],[0,0.5,0],[0,0.75,0],[1,0.25,0],[1,0.5,0],[1,0.75,0]];outlineConnect=0;fontColor=#232F3E;gradientColor=#F78E04;gradientDirection=north;fillColor=#D05C17;strokeColor=#ffffff;dashed=0;verticalLabelPosition=bottom;verticalAlign=top;align=center;html=1;fontSize=12;fontStyle=0;aspect=fixed;shape=mxgraph.aws4.resourceIcon;resIcon=mxgraph.aws4.ec2;strokeWidth=2;" vertex="1" parent="G5toYubQoZsCjo8l9rVy-10">
          <mxGeometry x="100" y="45" width="78" height="78" as="geometry" />
        </mxCell>
        <mxCell id="G5toYubQoZsCjo8l9rVy-12" value="Private subnet 1" style="points=[[0,0],[0.25,0],[0.5,0],[0.75,0],[1,0],[1,0.25],[1,0.5],[1,0.75],[1,1],[0.75,1],[0.5,1],[0.25,1],[0,1],[0,0.75],[0,0.5],[0,0.25]];outlineConnect=0;gradientColor=none;html=1;whiteSpace=wrap;fontSize=12;fontStyle=0;container=0;pointerEvents=0;collapsible=0;recursiveResize=0;shape=mxgraph.aws4.group;grIcon=mxgraph.aws4.group_security_group;grStroke=0;strokeColor=#147EBA;fillColor=#E6F2F8;verticalAlign=top;align=left;spacingLeft=30;fontColor=#147EBA;dashed=0;strokeWidth=2;" parent="1" vertex="1">
          <mxGeometry x="220" y="440" width="280" height="230" as="geometry" />
        </mxCell>
        <mxCell id="G5toYubQoZsCjo8l9rVy-23" value="Private subnet 2" style="points=[[0,0],[0.25,0],[0.5,0],[0.75,0],[1,0],[1,0.25],[1,0.5],[1,0.75],[1,1],[0.75,1],[0.5,1],[0.25,1],[0,1],[0,0.75],[0,0.5],[0,0.25]];outlineConnect=0;gradientColor=none;html=1;whiteSpace=wrap;fontSize=12;fontStyle=0;container=0;pointerEvents=0;collapsible=0;recursiveResize=0;shape=mxgraph.aws4.group;grIcon=mxgraph.aws4.group_security_group;grStroke=0;strokeColor=#147EBA;fillColor=#E6F2F8;verticalAlign=top;align=left;spacingLeft=30;fontColor=#147EBA;dashed=0;strokeWidth=2;" parent="1" vertex="1">
          <mxGeometry x="710" y="440" width="280" height="230" as="geometry" />
        </mxCell>
        <mxCell id="G5toYubQoZsCjo8l9rVy-16" value="Auto Scaling group" style="points=[[0,0],[0.25,0],[0.5,0],[0.75,0],[1,0],[1,0.25],[1,0.5],[1,0.75],[1,1],[0.75,1],[0.5,1],[0.25,1],[0,1],[0,0.75],[0,0.5],[0,0.25]];outlineConnect=0;gradientColor=none;html=1;whiteSpace=wrap;fontSize=12;fontStyle=0;container=0;pointerEvents=0;collapsible=0;recursiveResize=0;shape=mxgraph.aws4.groupCenter;grIcon=mxgraph.aws4.group_auto_scaling_group;grStroke=1;strokeColor=#D86613;fillColor=none;verticalAlign=top;align=center;fontColor=#D86613;dashed=1;spacingTop=25;strokeWidth=2;" parent="1" vertex="1">
          <mxGeometry x="230" y="530" width="750" height="110" as="geometry" />
        </mxCell>
        <mxCell id="2e-IZ0hc81l0EhctSPzu-1" value="EKS Cluster" style="sketch=0;points=[[0,0,0],[0.25,0,0],[0.5,0,0],[0.75,0,0],[1,0,0],[0,1,0],[0.25,1,0],[0.5,1,0],[0.75,1,0],[1,1,0],[0,0.25,0],[0,0.5,0],[0,0.75,0],[1,0.25,0],[1,0.5,0],[1,0.75,0]];outlineConnect=0;fontColor=#232F3E;gradientColor=#F78E04;gradientDirection=north;fillColor=#D05C17;strokeColor=#ffffff;dashed=0;verticalLabelPosition=bottom;verticalAlign=top;align=center;html=1;fontSize=12;fontStyle=0;aspect=fixed;shape=mxgraph.aws4.resourceIcon;resIcon=mxgraph.aws4.eks;strokeWidth=2;" vertex="1" parent="1">
          <mxGeometry x="566" y="640" width="78" height="78" as="geometry" />
        </mxCell>
        <mxCell id="2e-IZ0hc81l0EhctSPzu-2" value="" style="edgeStyle=orthogonalEdgeStyle;orthogonalLoop=1;jettySize=auto;html=1;rounded=1;fontColor=#000000;exitX=0;exitY=0.5;exitDx=0;exitDy=0;exitPerimeter=0;entryX=0.5;entryY=1;entryDx=0;entryDy=0;" edge="1" parent="1" source="2e-IZ0hc81l0EhctSPzu-1" target="G5toYubQoZsCjo8l9rVy-22">
          <mxGeometry width="80" relative="1" as="geometry">
            <mxPoint x="710" y="540" as="sourcePoint" />
            <mxPoint x="790" y="540" as="targetPoint" />
          </mxGeometry>
        </mxCell>
        <mxCell id="2e-IZ0hc81l0EhctSPzu-3" value="" style="edgeStyle=orthogonalEdgeStyle;orthogonalLoop=1;jettySize=auto;html=1;rounded=1;fontColor=#000000;exitX=0;exitY=0.5;exitDx=0;exitDy=0;exitPerimeter=0;" edge="1" parent="1" source="2e-IZ0hc81l0EhctSPzu-1" target="G5toYubQoZsCjo8l9rVy-21">
          <mxGeometry width="80" relative="1" as="geometry">
            <mxPoint x="576" y="689" as="sourcePoint" />
            <mxPoint x="456.5" y="615" as="targetPoint" />
          </mxGeometry>
        </mxCell>
        <mxCell id="2e-IZ0hc81l0EhctSPzu-4" value="" style="edgeStyle=orthogonalEdgeStyle;orthogonalLoop=1;jettySize=auto;html=1;rounded=1;fontColor=#000000;exitX=0;exitY=0.5;exitDx=0;exitDy=0;exitPerimeter=0;entryX=0.5;entryY=1;entryDx=0;entryDy=0;" edge="1" parent="1" source="2e-IZ0hc81l0EhctSPzu-1" target="G5toYubQoZsCjo8l9rVy-20">
          <mxGeometry width="80" relative="1" as="geometry">
            <mxPoint x="586" y="699" as="sourcePoint" />
            <mxPoint x="466.5" y="625" as="targetPoint" />
          </mxGeometry>
        </mxCell>
        <mxCell id="2e-IZ0hc81l0EhctSPzu-6" value="" style="edgeStyle=orthogonalEdgeStyle;orthogonalLoop=1;jettySize=auto;html=1;rounded=1;fontColor=#000000;entryX=0.5;entryY=1;entryDx=0;entryDy=0;" edge="1" parent="1" source="2e-IZ0hc81l0EhctSPzu-1" target="G5toYubQoZsCjo8l9rVy-24">
          <mxGeometry width="80" relative="1" as="geometry">
            <mxPoint x="1043.5" y="714" as="sourcePoint" />
            <mxPoint x="750" y="640" as="targetPoint" />
          </mxGeometry>
        </mxCell>
        <mxCell id="2e-IZ0hc81l0EhctSPzu-8" value="" style="edgeStyle=orthogonalEdgeStyle;orthogonalLoop=1;jettySize=auto;html=1;rounded=1;fontColor=#000000;exitX=1;exitY=0.5;exitDx=0;exitDy=0;exitPerimeter=0;" edge="1" parent="1" source="2e-IZ0hc81l0EhctSPzu-1" target="G5toYubQoZsCjo8l9rVy-25">
          <mxGeometry width="80" relative="1" as="geometry">
            <mxPoint x="664" y="699" as="sourcePoint" />
            <mxPoint x="782.5" y="625" as="targetPoint" />
          </mxGeometry>
        </mxCell>
        <mxCell id="2e-IZ0hc81l0EhctSPzu-9" value="" style="edgeStyle=orthogonalEdgeStyle;orthogonalLoop=1;jettySize=auto;html=1;rounded=1;fontColor=#000000;entryX=0.5;entryY=1;entryDx=0;entryDy=0;exitX=1;exitY=0.5;exitDx=0;exitDy=0;exitPerimeter=0;" edge="1" parent="1" source="2e-IZ0hc81l0EhctSPzu-1" target="G5toYubQoZsCjo8l9rVy-26">
          <mxGeometry width="80" relative="1" as="geometry">
            <mxPoint x="674" y="709" as="sourcePoint" />
            <mxPoint x="792.5" y="635" as="targetPoint" />
          </mxGeometry>
        </mxCell>
        <mxCell id="G5toYubQoZsCjo8l9rVy-20" value="" style="shape=image;verticalLabelPosition=bottom;verticalAlign=top;imageAspect=0;aspect=fixed;image=data:image/svg+xml,PHN2ZyB4bWxuczpkYz0iaHR0cDovL3B1cmwub3JnL2RjL2VsZW1lbnRzLzEuMS8iIHhtbG5zOmNjPSJodHRwOi8vY3JlYXRpdmVjb21tb25zLm9yZy9ucyMiIHhtbG5zOnJkZj0iaHR0cDovL3d3dy53My5vcmcvMTk5OS8wMi8yMi1yZGYtc3ludGF4LW5zIyIgeG1sbnM6c3ZnPSJodHRwOi8vd3d3LnczLm9yZy8yMDAwL3N2ZyIgeG1sbnM9Imh0dHA6Ly93d3cudzMub3JnLzIwMDAvc3ZnIiB4bWxuczpzb2RpcG9kaT0iaHR0cDovL3NvZGlwb2RpLnNvdXJjZWZvcmdlLm5ldC9EVEQvc29kaXBvZGktMC5kdGQiIHhtbG5zOmlua3NjYXBlPSJodHRwOi8vd3d3Lmlua3NjYXBlLm9yZy9uYW1lc3BhY2VzL2lua3NjYXBlIiB3aWR0aD0iMTguMDM1MzM0bW0iIGhlaWdodD0iMTcuNTAwMzc4bW0iIHZpZXdCb3g9IjAgMCAxOC4wMzUzMzQgMTcuNTAwMzc4IiB2ZXJzaW9uPSIxLjEiIGlkPSJzdmcxMzgyNiIgaW5rc2NhcGU6dmVyc2lvbj0iMC45MSByMTM3MjUiIHNvZGlwb2RpOmRvY25hbWU9Im5vZGUuc3ZnIj4mI3hhOyAgPGRlZnMgaWQ9ImRlZnMxMzgyMCIvPiYjeGE7ICA8c29kaXBvZGk6bmFtZWR2aWV3IGlkPSJiYXNlIiBwYWdlY29sb3I9IiNmZmZmZmYiIGJvcmRlcmNvbG9yPSIjNjY2NjY2IiBib3JkZXJvcGFjaXR5PSIxLjAiIGlua3NjYXBlOnBhZ2VvcGFjaXR5PSIwLjAiIGlua3NjYXBlOnBhZ2VzaGFkb3c9IjIiIGlua3NjYXBlOnpvb209IjgiIGlua3NjYXBlOmN4PSIxNi44NDc0OTYiIGlua3NjYXBlOmN5PSIzMy43NTIyMzkiIGlua3NjYXBlOmRvY3VtZW50LXVuaXRzPSJtbSIgaW5rc2NhcGU6Y3VycmVudC1sYXllcj0ibGF5ZXIxIiBzaG93Z3JpZD0iZmFsc2UiIGlua3NjYXBlOndpbmRvdy13aWR0aD0iMTQ0MCIgaW5rc2NhcGU6d2luZG93LWhlaWdodD0iNzc1IiBpbmtzY2FwZTp3aW5kb3cteD0iMCIgaW5rc2NhcGU6d2luZG93LXk9IjEiIGlua3NjYXBlOndpbmRvdy1tYXhpbWl6ZWQ9IjEiIGZpdC1tYXJnaW4tdG9wPSIwIiBmaXQtbWFyZ2luLWxlZnQ9IjAiIGZpdC1tYXJnaW4tcmlnaHQ9IjAiIGZpdC1tYXJnaW4tYm90dG9tPSIwIi8+JiN4YTsgICYjeGE7ICA8ZyBpbmtzY2FwZTpsYWJlbD0iQ2FscXVlIDEiIGlua3NjYXBlOmdyb3VwbW9kZT0ibGF5ZXIiIGlkPSJsYXllcjEiIHRyYW5zZm9ybT0idHJhbnNsYXRlKC0wLjk5MjYyNjM4LC0xLjE3NDE4MSkiPiYjeGE7ICAgIDxnIGlkPSJnNzAiIHRyYW5zZm9ybT0ibWF0cml4KDEuMDE0ODg4NywwLDAsMS4wMTQ4ODg3LDE2LjkwMjE0NiwtMi42OTg3MjYpIj4mI3hhOyAgICAgIDxwYXRoIGlua3NjYXBlOmV4cG9ydC15ZHBpPSIyNTAuNTUiIGlua3NjYXBlOmV4cG9ydC14ZHBpPSIyNTAuNTUiIGlua3NjYXBlOmV4cG9ydC1maWxlbmFtZT0ibmV3LnBuZyIgaW5rc2NhcGU6Y29ubmVjdG9yLWN1cnZhdHVyZT0iMCIgaWQ9InBhdGgzMDU1IiBkPSJtIC02Ljg0OTIwMTUsNC4yNzI0NjY4IGEgMS4xMTkxMjU1LDEuMTA5OTY3MSAwIDAgMCAtMC40Mjg4ODE4LDAuMTA4NTMwMyBsIC01Ljg1MjQwMzcsMi43OTYzMzk0IGEgMS4xMTkxMjU1LDEuMTA5OTY3MSAwIDAgMCAtMC42MDU1MjQsMC43NTI5NzU5IGwgLTEuNDQzODI4LDYuMjgxMjg0NiBhIDEuMTE5MTI1NSwxLjEwOTk2NzEgMCAwIDAgMC4xNTE5NDMsMC44NTEwMjggMS4xMTkxMjU1LDEuMTA5OTY3MSAwIDAgMCAwLjA2MzYyLDAuMDg4MzIgbCA0LjA1MDgsNS4wMzY1NTUgYSAxLjExOTEyNTUsMS4xMDk5NjcxIDAgMCAwIDAuODc0OTc5LDAuNDE3NjU0IGwgNi40OTYxMDExLC0wLjAwMTUgYSAxLjExOTEyNTUsMS4xMDk5NjcxIDAgMCAwIDAuODc0OTc4OCwtMC40MTY5MDYgTCAxLjM4MTg4NzIsMTUuMTQ5NDUzIEEgMS4xMTkxMjU1LDEuMTA5OTY3MSAwIDAgMCAxLjU5ODE5ODYsMTQuMjEwMTA0IEwgMC4xNTIxMjY1Nyw3LjkyODgxNTQgQSAxLjExOTEyNTUsMS4xMDk5NjcxIDAgMCAwIC0wLjQ1MzM5Nzk0LDcuMTc1ODM5NiBMIC02LjMwNjU0OTYsNC4zODA5OTcxIEEgMS4xMTkxMjU1LDEuMTA5OTY3MSAwIDAgMCAtNi44NDkyMDE1LDQuMjcyNDY2OCBaIiBzdHlsZT0iZmlsbDojMzI2Y2U1O2ZpbGwtb3BhY2l0eToxO3N0cm9rZTpub25lO3N0cm9rZS13aWR0aDowO3N0cm9rZS1taXRlcmxpbWl0OjQ7c3Ryb2tlLWRhc2hhcnJheTpub25lO3N0cm9rZS1vcGFjaXR5OjEiLz4mI3hhOyAgICAgIDxwYXRoIGlkPSJwYXRoMzA1NC0yLTkiIGQ9Ik0gLTYuODUyMzQzNSwzLjgxNzYzNzIgQSAxLjE4MTQzMDQsMS4xNzE3NjIgMCAwIDAgLTcuMzA0NDI4NCwzLjkzMjkwNCBsIC02LjE3ODc0MjYsMi45NTEyNzU4IGEgMS4xODE0MzA0LDEuMTcxNzYyIDAgMCAwIC0wLjYzOTIwNiwwLjc5NDg5MSBsIC0xLjUyMzkxNSw2LjYzMDgyODIgYSAxLjE4MTQzMDQsMS4xNzE3NjIgMCAwIDAgMC4xNjAxNzUsMC44OTg5MyAxLjE4MTQzMDQsMS4xNzE3NjIgMCAwIDAgMC4wNjczNiwwLjA5MjgxIGwgNC4yNzYwOTQsNS4zMTcyMzYgYSAxLjE4MTQzMDQsMS4xNzE3NjIgMCAwIDAgMC45MjM2MywwLjQ0MDg1OCBsIDYuODU3NjE4OCwtMC4wMDE1IGEgMS4xODE0MzA0LDEuMTcxNzYyIDAgMCAwIDAuOTIzNjMwOCwtMC40NDAxMSBsIDQuMjc0NTk2NiwtNS4zMTc5ODUgYSAxLjE4MTQzMDQsMS4xNzE3NjIgMCAwIDAgMC4yMjgyODgsLTAuOTkwOTkzIEwgMC41Mzg5NDQzOSw3LjY3NzU3MzggQSAxLjE4MTQzMDQsMS4xNzE3NjIgMCAwIDAgLTAuMTAwMjYxMDEsNi44ODM0MzEzIEwgLTYuMjc5MDAzNywzLjkzMjE1NTUgQSAxLjE4MTQzMDQsMS4xNzE3NjIgMCAwIDAgLTYuODUyMzQzNSwzLjgxNzYzNzIgWiBtIDAuMDAyOTksMC40NTUwNzg5IGEgMS4xMTkxMjU1LDEuMTA5OTY3MSAwIDAgMSAwLjU0MjY1MTcsMC4xMDg1MzAzIGwgNS44NTMxNTE2OSwyLjc5NDg0MjUgQSAxLjExOTEyNTUsMS4xMDk5NjcxIDAgMCAxIDAuMTUxOTc4MTEsNy45MjkwNjQ4IEwgMS41OTgwNTEsMTQuMjEwMzUgYSAxLjExOTEyNTUsMS4xMDk5NjcxIDAgMCAxIC0wLjIxNjMxMjMsMC45MzkzNDggbCAtNC4wNDkzMDMyLDUuMDM3MzA0IGEgMS4xMTkxMjU1LDEuMTA5OTY3MSAwIDAgMSAtMC44NzQ5Nzg5LDAuNDE2OTA2IGwgLTYuNDk2MTAwNiwwLjAwMTUgYSAxLjExOTEyNTUsMS4xMDk5NjcxIDAgMCAxIC0wLjg3NDk3OSwtMC40MTc2NTIgbCAtNC4wNTA4LC01LjAzNjU1NCBhIDEuMTE5MTI1NSwxLjEwOTk2NzEgMCAwIDEgLTAuMDYzNjIsLTAuMDg4MzIgMS4xMTkxMjU1LDEuMTA5OTY3MSAwIDAgMSAtMC4xNTE5NDIsLTAuODUxMDI4IGwgMS40NDM4MjcsLTYuMjgxMjg1MyBhIDEuMTE5MTI1NSwxLjEwOTk2NzEgMCAwIDEgMC42MDU1MjQsLTAuNzUyOTc1OCBsIDUuODUyNDAzNiwtMi43OTYzMzk1IGEgMS4xMTkxMjU1LDEuMTA5OTY3MSAwIDAgMSAwLjQyODg4MTksLTAuMTA4NTMwMyB6IiBzdHlsZT0iY29sb3I6IzAwMDAwMDtmb250LXN0eWxlOm5vcm1hbDtmb250LXZhcmlhbnQ6bm9ybWFsO2ZvbnQtd2VpZ2h0Om5vcm1hbDtmb250LXN0cmV0Y2g6bm9ybWFsO2ZvbnQtc2l6ZTptZWRpdW07bGluZS1oZWlnaHQ6bm9ybWFsO2ZvbnQtZmFtaWx5OlNhbnM7LWlua3NjYXBlLWZvbnQtc3BlY2lmaWNhdGlvbjpTYW5zO3RleHQtaW5kZW50OjA7dGV4dC1hbGlnbjpzdGFydDt0ZXh0LWRlY29yYXRpb246bm9uZTt0ZXh0LWRlY29yYXRpb24tbGluZTpub25lO2xldHRlci1zcGFjaW5nOm5vcm1hbDt3b3JkLXNwYWNpbmc6bm9ybWFsO3RleHQtdHJhbnNmb3JtOm5vbmU7d3JpdGluZy1tb2RlOmxyLXRiO2RpcmVjdGlvbjpsdHI7YmFzZWxpbmUtc2hpZnQ6YmFzZWxpbmU7dGV4dC1hbmNob3I6c3RhcnQ7ZGlzcGxheTppbmxpbmU7b3ZlcmZsb3c6dmlzaWJsZTt2aXNpYmlsaXR5OnZpc2libGU7ZmlsbDojZmZmZmZmO2ZpbGwtb3BhY2l0eToxO2ZpbGwtcnVsZTpub256ZXJvO3N0cm9rZTpub25lO3N0cm9rZS13aWR0aDowO3N0cm9rZS1taXRlcmxpbWl0OjQ7c3Ryb2tlLWRhc2hhcnJheTpub25lO21hcmtlcjpub25lO2VuYWJsZS1iYWNrZ3JvdW5kOmFjY3VtdWxhdGUiIGlua3NjYXBlOmNvbm5lY3Rvci1jdXJ2YXR1cmU9IjAiLz4mI3hhOyAgICA8L2c+JiN4YTsgICAgPHRleHQgaWQ9InRleHQyMDY2IiB5PSIxNi44MTE3NzUiIHg9IjkuOTc2NTMxIiBzdHlsZT0iZm9udC1zdHlsZTpub3JtYWw7Zm9udC13ZWlnaHQ6bm9ybWFsO2ZvbnQtc2l6ZToxMC41ODMzMzMwMnB4O2xpbmUtaGVpZ2h0OjYuNjE0NTgzNDlweDtmb250LWZhbWlseTpTYW5zO2xldHRlci1zcGFjaW5nOjBweDt3b3JkLXNwYWNpbmc6MHB4O2ZpbGw6I2ZmZmZmZjtmaWxsLW9wYWNpdHk6MTtzdHJva2U6bm9uZTtzdHJva2Utd2lkdGg6MC4yNjQ1ODMzMnB4O3N0cm9rZS1saW5lY2FwOmJ1dHQ7c3Ryb2tlLWxpbmVqb2luOm1pdGVyO3N0cm9rZS1vcGFjaXR5OjEiIHhtbDpzcGFjZT0icHJlc2VydmUiPjx0c3BhbiBzdHlsZT0iZm9udC1zdHlsZTpub3JtYWw7Zm9udC12YXJpYW50Om5vcm1hbDtmb250LXdlaWdodDpub3JtYWw7Zm9udC1zdHJldGNoOm5vcm1hbDtmb250LXNpemU6Mi44MjIyMjIyM3B4O2ZvbnQtZmFtaWx5OkFyaWFsOy1pbmtzY2FwZS1mb250LXNwZWNpZmljYXRpb246J0FyaWFsLCBOb3JtYWwnO3RleHQtYWxpZ246Y2VudGVyO3dyaXRpbmctbW9kZTpsci10Yjt0ZXh0LWFuY2hvcjptaWRkbGU7ZmlsbDojZmZmZmZmO2ZpbGwtb3BhY2l0eToxO3N0cm9rZS13aWR0aDowLjI2NDU4MzMycHgiIHk9IjE2LjgxMTc3NSIgeD0iOS45NzY1MzEiIGlkPSJ0c3BhbjIwNjQiIHNvZGlwb2RpOnJvbGU9ImxpbmUiPm5vZGU8L3RzcGFuPjwvdGV4dD4mI3hhOyAgICA8cGF0aCBzb2RpcG9kaTpub2RldHlwZXM9ImNjY2NjY2NjY2NjY2NjY2NjY2NjY2NjY2NjY2NjY2NjY2NjY2NjY2NjY2NjY2NjY2NjY2NjY2NjY2NjY2NjY2NjY2NjY2NjY2NjY2NjY2NjY2Njc2NjY2NjY2NjY2NjY2NjY2MiIGlkPSJwYXRoMTk5NCIgZD0ibSA5Ljk5MjE4MDMsNC4wOTQyNTQ0IGMgLTAuMTM4MzI5OCwtMC4wMDQ0IC0zLjk5NTA5OTgsMS44OTE4NzMxIC00LjA0NTUyOTksMS45ODkxMTkxIC0wLjEyMTE3LDAuMjMzNjgyIC0wLjk5ODksNC4yODE4Mjc1IC0wLjk0NzMxLDQuMzY5MDc0NSAwLjAzLDAuMDUwNjUgMC42NjIxOSwwLjg1MTg2MSAxLjQwNDU4LDEuNzgwMzI3IGwgMS4zNDk4MjAxLDEuNjg4MDE0IDIuMjIxMTkwMSw5LjMxZS00IDIuMjIxNjQwNCw5LjMxZS00IDEuNDEzMjEsLTEuNzY1NzMxIDEuNDEzNjUsLTEuNzY1MjI4IC0wLjQ5NDc5LC0yLjE2ODU3NjQgYyAtMC4yNzIyLC0xLjE5Mjc2NjEgLTAuNTE1NjYsLTIuMTg4NjE0MSAtMC41NDA1MywtMi4yMTI2MDQxIC0wLjA2OTUsLTAuMDY2ODggLTMuOTIwOTYsLTEuOTEzNzk0MSAtMy45OTU5MzA3LC0xLjkxNjIxNTEgeiBtIDAuMTk2MTQwNywwLjk0Nzc1MyAwLjkwODkzLDAuMjYzNTc3MSAtMC45MDg5MywwLjI2MzU3NiAtMC45MDg5MjA5LC0wLjI2MzU3NiB6IG0gLTAuOTA4OTIwOSwwLjM2NDUyIDAuODUxMTIwOSwwLjI1MzIyNjEgLTAuMDA0LDEuMTgzMjg5IC0wLjg0NjgxMDksLTAuNDY5MzQ3IHogbSAxLjgxNzg1MDksMCAwLDAuOTY3MTY4MSAtMC44NDY3OSwwLjQ2OTM0NyAtMC4wMDQsLTEuMTgzMjg5IHogTSA4Ljg5OTc3MDUsNy4wMjEyMDU1IDkuODA4NzEwMSw3LjI4NDc4MTIgOC44OTk3NzA1LDcuNTQ4MzU4MiA3Ljk5MDg1MDQsNy4yODQ3ODEyIFogbSAyLjIwODcwMDUsMCAwLjkwODk0LDAuMjYzNTc1NyAtMC45MDg5NCwwLjI2MzU3NyAtMC45MDg5MywtMC4yNjM1NzcgeiBtIC0zLjExNzYyMDYsMC4zNjQ1MTk3IDAuODUxMTIwMiwwLjI1Mjc5MiAtMC4wMDQsMS4xODMyOTA4IC0wLjg0NjgxOTksLTAuNDY4OTE1IHogbSAxLjgxNzg1OTcsMCAwLDAuOTY3MTY3OCAtMC44NDY4MDk4LDAuNDY4OTE1IC0wLjAwNCwtMS4xODMyOTA4IHogbSAwLjM5MDgzMDksMCAwLjg1MTEzLDAuMjUyNzkyIC0wLjAwNCwxLjE4MzI5MDggLTAuODQ2ODIsLTAuNDY4OTE1IHogbSAxLjgxNzg3LDAgMCwwLjk2NzE2NzggLTAuODQ2ODIsMC40Njg5MTUgLTAuMDA0LC0xLjE4MzI5MDggeiBNIDguNTY3NzUwNSw4LjkwMDc1MzQgYyAwLjI3MDYyOTksMC4wMDk2IDAuMDYxMSwwLjI4MTkwOSAwLjM2ODQxMDEsMC40Mjc5MzUgMC4zMjc3NDk1LDAuMTU1NzY0NCAwLjM5NTM5OTUsLTAuMjM1MzU0IDAuNjAxMzM5NSwwLjA2MzQxIDAuMjA1OTksMC4yOTg3NjY0IC0wLjE4MzM5LDAuMjIzMjM5NCAtMC4xNTQ0MywwLjU4NDk1NjggMC4wMjksMC4zNjE3MTg4IDAuNDAxNjUsMC4yMjQ4NTg4IDAuMjQ1ODksMC41NTI2MDY4IC0wLjE1NTc1LDAuMzI3NzQ2IC0wLjI4NTMyLC0wLjA0NzY0IC0wLjU4NDA4OTUsMC4xNTgzMTcgLTAuMjk4NzQwMSwwLjIwNTk1NyAwLjAwNiwwLjQ2MDIwOCAtMC4zNTU0NiwwLjQ4OTE5MiAtMC4zNjE3NDAxLDAuMDI4OTggLTAuMTAxNTAwMSwtMC4yNzA0NDcgLTAuNDI5MjQsLTAuNDI2MjA4IC0wLjMyNzc1LC0wLjE1NTc2NSAtMC4zOTUzODAxLDAuMjM0OTIxIC0wLjYwMTM0MDIsLTAuMDYzODUgLTAuMjA1OTU5OSwtMC4yOTg3NjcgMC4xODM4Mjk5LC0wLjIyMjgxIDAuMTU0ODUsLTAuNTg0NTI4IC0wLjAyOSwtMC4zNjE3MTgyIC0wLjQwMTY0OTksLTAuMjI0ODU5MiAtMC4yNDU4NywtMC41NTI2MDQyIDAuMTU1NzUwMSwtMC4zMjc3NDk0IDAuMjg0ODgwMSwwLjA0NzY0IDAuNTgzNjUwMiwtMC4xNTgzMjA0IDAuMjk4Nzg5OCwtMC4yMDU5NTYgLTAuMDA2LC0wLjQ2MDIwOCAwLjM1NTkwOTksLTAuNDg5MTkgMC4wMjI0OTksLTAuMDAxOCAwLjA0MjQsLTAuMDAyMyAwLjA2MDQsLTAuMDAxOCB6IG0gMi4zMzU5NjA1LDAuMzYyNzk0IGMgMC40ODMzNSwwLjAxMzU4IDAuMDE0NiwwLjQ2NzIxODQgMC40NTU5NiwwLjY2NDc2NjQgMC40NDE0NCwwLjE5NzU0ODIgMC40NjcxNCwtMC40NTQxMDMgMC43OTkzNywtMC4xMDI2NjkgMC4zMzIyMSwwLjM1MTQzMjIgLTAuMzE5OTcsMC4zNDA2NDAyIC0wLjE0NzUzLDAuNzkyNDU1MiAwLjE3MjQzLDAuNDUxODEzIDAuNjUxNjMsMC4wMDkyIDAuNjM4MDIsMC40OTI2NCAtMC4wMTM3LDAuNDgzNDExIC0wLjQ2NzIzLDAuMDE0NTYgLTAuNjY0NzcsMC40NTU5NzcgLTAuMTk3NTUsMC40NDE0MTIgMC40NTQxLDAuNDY3MTQzIDAuMTAyNjYsMC43OTkzNTcgLTAuMzUxNDEsMC4zMzIyMTIgLTAuMzQwMjEsLTAuMzE5OTc0IC0wLjc5MjAyLC0wLjE0NzUzNCAtMC40NTE4MywwLjE3MjQzNyAtMC4wMDksMC42NTE2MSAtMC40OTI2NSwwLjYzODAxOSAtMC40ODMzOSwtMC4wMTM1OCAtMC4wMTQ2LC0wLjQ2NzIxNiAtMC40NTU5NiwtMC42NjQ3NjQgLTAuNDQxNDEwNSwtMC4xOTc1NTEgLTAuNDY3NTgwNSwwLjQ1NDEwMiAtMC43OTk3OTA5LDAuMTAyNjY5IC0wLjMzMjIwOTcsLTAuMzUxNDMxIDAuMzE5OTgwNCwtMC4zNDAyMDkgMC4xNDc1NCwtMC43OTIwMjUgLTAuMTcyNDUsLTAuNDUxODE1IC0wLjY1MTYyOTYsLTAuMDA5MiAtMC42MzgwMjk1LC0wLjQ5MjY0MiAwLjAxMzY5OSwtMC40ODM0MDggMC40NjcyMDk1LC0wLjAxNDk5IDAuNjY0Nzc5NSwtMC40NTY0MDUgMC4xOTc1MjA0LC0wLjQ0MTQxNCAtMC40NTQxMSwtMC40NjcxNDMgLTAuMTAyNjksLTAuNzk5MzU3MiAwLjM1MTQ1MDUsLTAuMzMyMjE0IDAuMzQwNjUwNSwwLjMxOTk3MTIgMC43OTI0NjA5LDAuMTQ3NTM0IDAuNDUxODQsLTAuMTcyNDQgMC4wMDksLTAuNjUxNjExNCAwLjQ5MjY1LC0wLjYzODAyMTQgeiBNIDguNTg4ODkwMyw5LjUxNzIwMjggYyAtMC4yOTM2NDk5LDllLTUgLTAuNTMxNjA5OCwwLjIzODI0OSAtMC41MzE0NDk4LDAuNTMxODk4MiA3Ljk5ZS01LDAuMjkzNDgxIDAuMjM3OTcwMSwwLjUzMTM3NyAwLjUzMTQ0OTgsMC41MzE0NjcgMC4yOTM2NjAyLDEuNTllLTQgMC41MzE4MjAyLC0wLjIzNzgxIDAuNTMxOSwtMC41MzE0NjcgMS42MDFlLTQsLTAuMjkzODI1MiAtMC4yMzgwNjk5LC0wLjUzMjA1NzIgLTAuNTMxOSwtMC41MzE4OTgyIHogbSAyLjI2NDM2MDcsMC40ODA1NjM0IGMgLTAuNTg2ODksLTEuOTZlLTQgLTEuMDYyNzEwOSwwLjQ3NTYxNDggLTEuMDYyNTIwOSwxLjA2MjUwMjggNWUtNSwwLjU4NjcxOSAwLjQ3NTgwMDksMS4wNjIyNjcgMS4wNjI1MjA5LDEuMDYyMDcxIDAuNTg2NTQsLTUuOGUtNSAxLjA2MjAxLC0wLjQ3NTUzMSAxLjA2MjA2LC0xLjA2MjA3MSAxLjllLTQsLTAuNTg2NzA4IC0wLjQ3NTM1LC0xLjA2MjQ0NDggLTEuMDYyMDYsLTEuMDYyNTAyOCB6IiBzdHlsZT0ib3BhY2l0eToxO2ZpbGw6I2ZmZmZmZjtmaWxsLW9wYWNpdHk6MTtzdHJva2U6I2VlZWVlZTtzdHJva2Utd2lkdGg6MDtzdHJva2UtbWl0ZXJsaW1pdDoxMDtzdHJva2UtZGFzaGFycmF5Om5vbmU7c3Ryb2tlLWRhc2hvZmZzZXQ6MTEuMjM2NDIzNDk7c3Ryb2tlLW9wYWNpdHk6MSIgaW5rc2NhcGU6Y29ubmVjdG9yLWN1cnZhdHVyZT0iMCIvPiYjeGE7ICA8L2c+JiN4YTs8L3N2Zz4=;strokeWidth=2;fontColor=#000000;" parent="1" vertex="1">
          <mxGeometry x="240" y="540" width="65" height="65" as="geometry" />
        </mxCell>
        <mxCell id="G5toYubQoZsCjo8l9rVy-21" value="" style="shape=image;verticalLabelPosition=bottom;verticalAlign=top;imageAspect=0;aspect=fixed;image=data:image/svg+xml,PHN2ZyB4bWxuczpkYz0iaHR0cDovL3B1cmwub3JnL2RjL2VsZW1lbnRzLzEuMS8iIHhtbG5zOmNjPSJodHRwOi8vY3JlYXRpdmVjb21tb25zLm9yZy9ucyMiIHhtbG5zOnJkZj0iaHR0cDovL3d3dy53My5vcmcvMTk5OS8wMi8yMi1yZGYtc3ludGF4LW5zIyIgeG1sbnM6c3ZnPSJodHRwOi8vd3d3LnczLm9yZy8yMDAwL3N2ZyIgeG1sbnM9Imh0dHA6Ly93d3cudzMub3JnLzIwMDAvc3ZnIiB4bWxuczpzb2RpcG9kaT0iaHR0cDovL3NvZGlwb2RpLnNvdXJjZWZvcmdlLm5ldC9EVEQvc29kaXBvZGktMC5kdGQiIHhtbG5zOmlua3NjYXBlPSJodHRwOi8vd3d3Lmlua3NjYXBlLm9yZy9uYW1lc3BhY2VzL2lua3NjYXBlIiB3aWR0aD0iMTguMDM1MzM0bW0iIGhlaWdodD0iMTcuNTAwMzc4bW0iIHZpZXdCb3g9IjAgMCAxOC4wMzUzMzQgMTcuNTAwMzc4IiB2ZXJzaW9uPSIxLjEiIGlkPSJzdmcxMzgyNiIgaW5rc2NhcGU6dmVyc2lvbj0iMC45MSByMTM3MjUiIHNvZGlwb2RpOmRvY25hbWU9Im5vZGUuc3ZnIj4mI3hhOyAgPGRlZnMgaWQ9ImRlZnMxMzgyMCIvPiYjeGE7ICA8c29kaXBvZGk6bmFtZWR2aWV3IGlkPSJiYXNlIiBwYWdlY29sb3I9IiNmZmZmZmYiIGJvcmRlcmNvbG9yPSIjNjY2NjY2IiBib3JkZXJvcGFjaXR5PSIxLjAiIGlua3NjYXBlOnBhZ2VvcGFjaXR5PSIwLjAiIGlua3NjYXBlOnBhZ2VzaGFkb3c9IjIiIGlua3NjYXBlOnpvb209IjgiIGlua3NjYXBlOmN4PSIxNi44NDc0OTYiIGlua3NjYXBlOmN5PSIzMy43NTIyMzkiIGlua3NjYXBlOmRvY3VtZW50LXVuaXRzPSJtbSIgaW5rc2NhcGU6Y3VycmVudC1sYXllcj0ibGF5ZXIxIiBzaG93Z3JpZD0iZmFsc2UiIGlua3NjYXBlOndpbmRvdy13aWR0aD0iMTQ0MCIgaW5rc2NhcGU6d2luZG93LWhlaWdodD0iNzc1IiBpbmtzY2FwZTp3aW5kb3cteD0iMCIgaW5rc2NhcGU6d2luZG93LXk9IjEiIGlua3NjYXBlOndpbmRvdy1tYXhpbWl6ZWQ9IjEiIGZpdC1tYXJnaW4tdG9wPSIwIiBmaXQtbWFyZ2luLWxlZnQ9IjAiIGZpdC1tYXJnaW4tcmlnaHQ9IjAiIGZpdC1tYXJnaW4tYm90dG9tPSIwIi8+JiN4YTsgICYjeGE7ICA8ZyBpbmtzY2FwZTpsYWJlbD0iQ2FscXVlIDEiIGlua3NjYXBlOmdyb3VwbW9kZT0ibGF5ZXIiIGlkPSJsYXllcjEiIHRyYW5zZm9ybT0idHJhbnNsYXRlKC0wLjk5MjYyNjM4LC0xLjE3NDE4MSkiPiYjeGE7ICAgIDxnIGlkPSJnNzAiIHRyYW5zZm9ybT0ibWF0cml4KDEuMDE0ODg4NywwLDAsMS4wMTQ4ODg3LDE2LjkwMjE0NiwtMi42OTg3MjYpIj4mI3hhOyAgICAgIDxwYXRoIGlua3NjYXBlOmV4cG9ydC15ZHBpPSIyNTAuNTUiIGlua3NjYXBlOmV4cG9ydC14ZHBpPSIyNTAuNTUiIGlua3NjYXBlOmV4cG9ydC1maWxlbmFtZT0ibmV3LnBuZyIgaW5rc2NhcGU6Y29ubmVjdG9yLWN1cnZhdHVyZT0iMCIgaWQ9InBhdGgzMDU1IiBkPSJtIC02Ljg0OTIwMTUsNC4yNzI0NjY4IGEgMS4xMTkxMjU1LDEuMTA5OTY3MSAwIDAgMCAtMC40Mjg4ODE4LDAuMTA4NTMwMyBsIC01Ljg1MjQwMzcsMi43OTYzMzk0IGEgMS4xMTkxMjU1LDEuMTA5OTY3MSAwIDAgMCAtMC42MDU1MjQsMC43NTI5NzU5IGwgLTEuNDQzODI4LDYuMjgxMjg0NiBhIDEuMTE5MTI1NSwxLjEwOTk2NzEgMCAwIDAgMC4xNTE5NDMsMC44NTEwMjggMS4xMTkxMjU1LDEuMTA5OTY3MSAwIDAgMCAwLjA2MzYyLDAuMDg4MzIgbCA0LjA1MDgsNS4wMzY1NTUgYSAxLjExOTEyNTUsMS4xMDk5NjcxIDAgMCAwIDAuODc0OTc5LDAuNDE3NjU0IGwgNi40OTYxMDExLC0wLjAwMTUgYSAxLjExOTEyNTUsMS4xMDk5NjcxIDAgMCAwIDAuODc0OTc4OCwtMC40MTY5MDYgTCAxLjM4MTg4NzIsMTUuMTQ5NDUzIEEgMS4xMTkxMjU1LDEuMTA5OTY3MSAwIDAgMCAxLjU5ODE5ODYsMTQuMjEwMTA0IEwgMC4xNTIxMjY1Nyw3LjkyODgxNTQgQSAxLjExOTEyNTUsMS4xMDk5NjcxIDAgMCAwIC0wLjQ1MzM5Nzk0LDcuMTc1ODM5NiBMIC02LjMwNjU0OTYsNC4zODA5OTcxIEEgMS4xMTkxMjU1LDEuMTA5OTY3MSAwIDAgMCAtNi44NDkyMDE1LDQuMjcyNDY2OCBaIiBzdHlsZT0iZmlsbDojMzI2Y2U1O2ZpbGwtb3BhY2l0eToxO3N0cm9rZTpub25lO3N0cm9rZS13aWR0aDowO3N0cm9rZS1taXRlcmxpbWl0OjQ7c3Ryb2tlLWRhc2hhcnJheTpub25lO3N0cm9rZS1vcGFjaXR5OjEiLz4mI3hhOyAgICAgIDxwYXRoIGlkPSJwYXRoMzA1NC0yLTkiIGQ9Ik0gLTYuODUyMzQzNSwzLjgxNzYzNzIgQSAxLjE4MTQzMDQsMS4xNzE3NjIgMCAwIDAgLTcuMzA0NDI4NCwzLjkzMjkwNCBsIC02LjE3ODc0MjYsMi45NTEyNzU4IGEgMS4xODE0MzA0LDEuMTcxNzYyIDAgMCAwIC0wLjYzOTIwNiwwLjc5NDg5MSBsIC0xLjUyMzkxNSw2LjYzMDgyODIgYSAxLjE4MTQzMDQsMS4xNzE3NjIgMCAwIDAgMC4xNjAxNzUsMC44OTg5MyAxLjE4MTQzMDQsMS4xNzE3NjIgMCAwIDAgMC4wNjczNiwwLjA5MjgxIGwgNC4yNzYwOTQsNS4zMTcyMzYgYSAxLjE4MTQzMDQsMS4xNzE3NjIgMCAwIDAgMC45MjM2MywwLjQ0MDg1OCBsIDYuODU3NjE4OCwtMC4wMDE1IGEgMS4xODE0MzA0LDEuMTcxNzYyIDAgMCAwIDAuOTIzNjMwOCwtMC40NDAxMSBsIDQuMjc0NTk2NiwtNS4zMTc5ODUgYSAxLjE4MTQzMDQsMS4xNzE3NjIgMCAwIDAgMC4yMjgyODgsLTAuOTkwOTkzIEwgMC41Mzg5NDQzOSw3LjY3NzU3MzggQSAxLjE4MTQzMDQsMS4xNzE3NjIgMCAwIDAgLTAuMTAwMjYxMDEsNi44ODM0MzEzIEwgLTYuMjc5MDAzNywzLjkzMjE1NTUgQSAxLjE4MTQzMDQsMS4xNzE3NjIgMCAwIDAgLTYuODUyMzQzNSwzLjgxNzYzNzIgWiBtIDAuMDAyOTksMC40NTUwNzg5IGEgMS4xMTkxMjU1LDEuMTA5OTY3MSAwIDAgMSAwLjU0MjY1MTcsMC4xMDg1MzAzIGwgNS44NTMxNTE2OSwyLjc5NDg0MjUgQSAxLjExOTEyNTUsMS4xMDk5NjcxIDAgMCAxIDAuMTUxOTc4MTEsNy45MjkwNjQ4IEwgMS41OTgwNTEsMTQuMjEwMzUgYSAxLjExOTEyNTUsMS4xMDk5NjcxIDAgMCAxIC0wLjIxNjMxMjMsMC45MzkzNDggbCAtNC4wNDkzMDMyLDUuMDM3MzA0IGEgMS4xMTkxMjU1LDEuMTA5OTY3MSAwIDAgMSAtMC44NzQ5Nzg5LDAuNDE2OTA2IGwgLTYuNDk2MTAwNiwwLjAwMTUgYSAxLjExOTEyNTUsMS4xMDk5NjcxIDAgMCAxIC0wLjg3NDk3OSwtMC40MTc2NTIgbCAtNC4wNTA4LC01LjAzNjU1NCBhIDEuMTE5MTI1NSwxLjEwOTk2NzEgMCAwIDEgLTAuMDYzNjIsLTAuMDg4MzIgMS4xMTkxMjU1LDEuMTA5OTY3MSAwIDAgMSAtMC4xNTE5NDIsLTAuODUxMDI4IGwgMS40NDM4MjcsLTYuMjgxMjg1MyBhIDEuMTE5MTI1NSwxLjEwOTk2NzEgMCAwIDEgMC42MDU1MjQsLTAuNzUyOTc1OCBsIDUuODUyNDAzNiwtMi43OTYzMzk1IGEgMS4xMTkxMjU1LDEuMTA5OTY3MSAwIDAgMSAwLjQyODg4MTksLTAuMTA4NTMwMyB6IiBzdHlsZT0iY29sb3I6IzAwMDAwMDtmb250LXN0eWxlOm5vcm1hbDtmb250LXZhcmlhbnQ6bm9ybWFsO2ZvbnQtd2VpZ2h0Om5vcm1hbDtmb250LXN0cmV0Y2g6bm9ybWFsO2ZvbnQtc2l6ZTptZWRpdW07bGluZS1oZWlnaHQ6bm9ybWFsO2ZvbnQtZmFtaWx5OlNhbnM7LWlua3NjYXBlLWZvbnQtc3BlY2lmaWNhdGlvbjpTYW5zO3RleHQtaW5kZW50OjA7dGV4dC1hbGlnbjpzdGFydDt0ZXh0LWRlY29yYXRpb246bm9uZTt0ZXh0LWRlY29yYXRpb24tbGluZTpub25lO2xldHRlci1zcGFjaW5nOm5vcm1hbDt3b3JkLXNwYWNpbmc6bm9ybWFsO3RleHQtdHJhbnNmb3JtOm5vbmU7d3JpdGluZy1tb2RlOmxyLXRiO2RpcmVjdGlvbjpsdHI7YmFzZWxpbmUtc2hpZnQ6YmFzZWxpbmU7dGV4dC1hbmNob3I6c3RhcnQ7ZGlzcGxheTppbmxpbmU7b3ZlcmZsb3c6dmlzaWJsZTt2aXNpYmlsaXR5OnZpc2libGU7ZmlsbDojZmZmZmZmO2ZpbGwtb3BhY2l0eToxO2ZpbGwtcnVsZTpub256ZXJvO3N0cm9rZTpub25lO3N0cm9rZS13aWR0aDowO3N0cm9rZS1taXRlcmxpbWl0OjQ7c3Ryb2tlLWRhc2hhcnJheTpub25lO21hcmtlcjpub25lO2VuYWJsZS1iYWNrZ3JvdW5kOmFjY3VtdWxhdGUiIGlua3NjYXBlOmNvbm5lY3Rvci1jdXJ2YXR1cmU9IjAiLz4mI3hhOyAgICA8L2c+JiN4YTsgICAgPHRleHQgaWQ9InRleHQyMDY2IiB5PSIxNi44MTE3NzUiIHg9IjkuOTc2NTMxIiBzdHlsZT0iZm9udC1zdHlsZTpub3JtYWw7Zm9udC13ZWlnaHQ6bm9ybWFsO2ZvbnQtc2l6ZToxMC41ODMzMzMwMnB4O2xpbmUtaGVpZ2h0OjYuNjE0NTgzNDlweDtmb250LWZhbWlseTpTYW5zO2xldHRlci1zcGFjaW5nOjBweDt3b3JkLXNwYWNpbmc6MHB4O2ZpbGw6I2ZmZmZmZjtmaWxsLW9wYWNpdHk6MTtzdHJva2U6bm9uZTtzdHJva2Utd2lkdGg6MC4yNjQ1ODMzMnB4O3N0cm9rZS1saW5lY2FwOmJ1dHQ7c3Ryb2tlLWxpbmVqb2luOm1pdGVyO3N0cm9rZS1vcGFjaXR5OjEiIHhtbDpzcGFjZT0icHJlc2VydmUiPjx0c3BhbiBzdHlsZT0iZm9udC1zdHlsZTpub3JtYWw7Zm9udC12YXJpYW50Om5vcm1hbDtmb250LXdlaWdodDpub3JtYWw7Zm9udC1zdHJldGNoOm5vcm1hbDtmb250LXNpemU6Mi44MjIyMjIyM3B4O2ZvbnQtZmFtaWx5OkFyaWFsOy1pbmtzY2FwZS1mb250LXNwZWNpZmljYXRpb246J0FyaWFsLCBOb3JtYWwnO3RleHQtYWxpZ246Y2VudGVyO3dyaXRpbmctbW9kZTpsci10Yjt0ZXh0LWFuY2hvcjptaWRkbGU7ZmlsbDojZmZmZmZmO2ZpbGwtb3BhY2l0eToxO3N0cm9rZS13aWR0aDowLjI2NDU4MzMycHgiIHk9IjE2LjgxMTc3NSIgeD0iOS45NzY1MzEiIGlkPSJ0c3BhbjIwNjQiIHNvZGlwb2RpOnJvbGU9ImxpbmUiPm5vZGU8L3RzcGFuPjwvdGV4dD4mI3hhOyAgICA8cGF0aCBzb2RpcG9kaTpub2RldHlwZXM9ImNjY2NjY2NjY2NjY2NjY2NjY2NjY2NjY2NjY2NjY2NjY2NjY2NjY2NjY2NjY2NjY2NjY2NjY2NjY2NjY2NjY2NjY2NjY2NjY2NjY2NjY2NjY2Njc2NjY2NjY2NjY2NjY2NjY2MiIGlkPSJwYXRoMTk5NCIgZD0ibSA5Ljk5MjE4MDMsNC4wOTQyNTQ0IGMgLTAuMTM4MzI5OCwtMC4wMDQ0IC0zLjk5NTA5OTgsMS44OTE4NzMxIC00LjA0NTUyOTksMS45ODkxMTkxIC0wLjEyMTE3LDAuMjMzNjgyIC0wLjk5ODksNC4yODE4Mjc1IC0wLjk0NzMxLDQuMzY5MDc0NSAwLjAzLDAuMDUwNjUgMC42NjIxOSwwLjg1MTg2MSAxLjQwNDU4LDEuNzgwMzI3IGwgMS4zNDk4MjAxLDEuNjg4MDE0IDIuMjIxMTkwMSw5LjMxZS00IDIuMjIxNjQwNCw5LjMxZS00IDEuNDEzMjEsLTEuNzY1NzMxIDEuNDEzNjUsLTEuNzY1MjI4IC0wLjQ5NDc5LC0yLjE2ODU3NjQgYyAtMC4yNzIyLC0xLjE5Mjc2NjEgLTAuNTE1NjYsLTIuMTg4NjE0MSAtMC41NDA1MywtMi4yMTI2MDQxIC0wLjA2OTUsLTAuMDY2ODggLTMuOTIwOTYsLTEuOTEzNzk0MSAtMy45OTU5MzA3LC0xLjkxNjIxNTEgeiBtIDAuMTk2MTQwNywwLjk0Nzc1MyAwLjkwODkzLDAuMjYzNTc3MSAtMC45MDg5MywwLjI2MzU3NiAtMC45MDg5MjA5LC0wLjI2MzU3NiB6IG0gLTAuOTA4OTIwOSwwLjM2NDUyIDAuODUxMTIwOSwwLjI1MzIyNjEgLTAuMDA0LDEuMTgzMjg5IC0wLjg0NjgxMDksLTAuNDY5MzQ3IHogbSAxLjgxNzg1MDksMCAwLDAuOTY3MTY4MSAtMC44NDY3OSwwLjQ2OTM0NyAtMC4wMDQsLTEuMTgzMjg5IHogTSA4Ljg5OTc3MDUsNy4wMjEyMDU1IDkuODA4NzEwMSw3LjI4NDc4MTIgOC44OTk3NzA1LDcuNTQ4MzU4MiA3Ljk5MDg1MDQsNy4yODQ3ODEyIFogbSAyLjIwODcwMDUsMCAwLjkwODk0LDAuMjYzNTc1NyAtMC45MDg5NCwwLjI2MzU3NyAtMC45MDg5MywtMC4yNjM1NzcgeiBtIC0zLjExNzYyMDYsMC4zNjQ1MTk3IDAuODUxMTIwMiwwLjI1Mjc5MiAtMC4wMDQsMS4xODMyOTA4IC0wLjg0NjgxOTksLTAuNDY4OTE1IHogbSAxLjgxNzg1OTcsMCAwLDAuOTY3MTY3OCAtMC44NDY4MDk4LDAuNDY4OTE1IC0wLjAwNCwtMS4xODMyOTA4IHogbSAwLjM5MDgzMDksMCAwLjg1MTEzLDAuMjUyNzkyIC0wLjAwNCwxLjE4MzI5MDggLTAuODQ2ODIsLTAuNDY4OTE1IHogbSAxLjgxNzg3LDAgMCwwLjk2NzE2NzggLTAuODQ2ODIsMC40Njg5MTUgLTAuMDA0LC0xLjE4MzI5MDggeiBNIDguNTY3NzUwNSw4LjkwMDc1MzQgYyAwLjI3MDYyOTksMC4wMDk2IDAuMDYxMSwwLjI4MTkwOSAwLjM2ODQxMDEsMC40Mjc5MzUgMC4zMjc3NDk1LDAuMTU1NzY0NCAwLjM5NTM5OTUsLTAuMjM1MzU0IDAuNjAxMzM5NSwwLjA2MzQxIDAuMjA1OTksMC4yOTg3NjY0IC0wLjE4MzM5LDAuMjIzMjM5NCAtMC4xNTQ0MywwLjU4NDk1NjggMC4wMjksMC4zNjE3MTg4IDAuNDAxNjUsMC4yMjQ4NTg4IDAuMjQ1ODksMC41NTI2MDY4IC0wLjE1NTc1LDAuMzI3NzQ2IC0wLjI4NTMyLC0wLjA0NzY0IC0wLjU4NDA4OTUsMC4xNTgzMTcgLTAuMjk4NzQwMSwwLjIwNTk1NyAwLjAwNiwwLjQ2MDIwOCAtMC4zNTU0NiwwLjQ4OTE5MiAtMC4zNjE3NDAxLDAuMDI4OTggLTAuMTAxNTAwMSwtMC4yNzA0NDcgLTAuNDI5MjQsLTAuNDI2MjA4IC0wLjMyNzc1LC0wLjE1NTc2NSAtMC4zOTUzODAxLDAuMjM0OTIxIC0wLjYwMTM0MDIsLTAuMDYzODUgLTAuMjA1OTU5OSwtMC4yOTg3NjcgMC4xODM4Mjk5LC0wLjIyMjgxIDAuMTU0ODUsLTAuNTg0NTI4IC0wLjAyOSwtMC4zNjE3MTgyIC0wLjQwMTY0OTksLTAuMjI0ODU5MiAtMC4yNDU4NywtMC41NTI2MDQyIDAuMTU1NzUwMSwtMC4zMjc3NDk0IDAuMjg0ODgwMSwwLjA0NzY0IDAuNTgzNjUwMiwtMC4xNTgzMjA0IDAuMjk4Nzg5OCwtMC4yMDU5NTYgLTAuMDA2LC0wLjQ2MDIwOCAwLjM1NTkwOTksLTAuNDg5MTkgMC4wMjI0OTksLTAuMDAxOCAwLjA0MjQsLTAuMDAyMyAwLjA2MDQsLTAuMDAxOCB6IG0gMi4zMzU5NjA1LDAuMzYyNzk0IGMgMC40ODMzNSwwLjAxMzU4IDAuMDE0NiwwLjQ2NzIxODQgMC40NTU5NiwwLjY2NDc2NjQgMC40NDE0NCwwLjE5NzU0ODIgMC40NjcxNCwtMC40NTQxMDMgMC43OTkzNywtMC4xMDI2NjkgMC4zMzIyMSwwLjM1MTQzMjIgLTAuMzE5OTcsMC4zNDA2NDAyIC0wLjE0NzUzLDAuNzkyNDU1MiAwLjE3MjQzLDAuNDUxODEzIDAuNjUxNjMsMC4wMDkyIDAuNjM4MDIsMC40OTI2NCAtMC4wMTM3LDAuNDgzNDExIC0wLjQ2NzIzLDAuMDE0NTYgLTAuNjY0NzcsMC40NTU5NzcgLTAuMTk3NTUsMC40NDE0MTIgMC40NTQxLDAuNDY3MTQzIDAuMTAyNjYsMC43OTkzNTcgLTAuMzUxNDEsMC4zMzIyMTIgLTAuMzQwMjEsLTAuMzE5OTc0IC0wLjc5MjAyLC0wLjE0NzUzNCAtMC40NTE4MywwLjE3MjQzNyAtMC4wMDksMC42NTE2MSAtMC40OTI2NSwwLjYzODAxOSAtMC40ODMzOSwtMC4wMTM1OCAtMC4wMTQ2LC0wLjQ2NzIxNiAtMC40NTU5NiwtMC42NjQ3NjQgLTAuNDQxNDEwNSwtMC4xOTc1NTEgLTAuNDY3NTgwNSwwLjQ1NDEwMiAtMC43OTk3OTA5LDAuMTAyNjY5IC0wLjMzMjIwOTcsLTAuMzUxNDMxIDAuMzE5OTgwNCwtMC4zNDAyMDkgMC4xNDc1NCwtMC43OTIwMjUgLTAuMTcyNDUsLTAuNDUxODE1IC0wLjY1MTYyOTYsLTAuMDA5MiAtMC42MzgwMjk1LC0wLjQ5MjY0MiAwLjAxMzY5OSwtMC40ODM0MDggMC40NjcyMDk1LC0wLjAxNDk5IDAuNjY0Nzc5NSwtMC40NTY0MDUgMC4xOTc1MjA0LC0wLjQ0MTQxNCAtMC40NTQxMSwtMC40NjcxNDMgLTAuMTAyNjksLTAuNzk5MzU3MiAwLjM1MTQ1MDUsLTAuMzMyMjE0IDAuMzQwNjUwNSwwLjMxOTk3MTIgMC43OTI0NjA5LDAuMTQ3NTM0IDAuNDUxODQsLTAuMTcyNDQgMC4wMDksLTAuNjUxNjExNCAwLjQ5MjY1LC0wLjYzODAyMTQgeiBNIDguNTg4ODkwMyw5LjUxNzIwMjggYyAtMC4yOTM2NDk5LDllLTUgLTAuNTMxNjA5OCwwLjIzODI0OSAtMC41MzE0NDk4LDAuNTMxODk4MiA3Ljk5ZS01LDAuMjkzNDgxIDAuMjM3OTcwMSwwLjUzMTM3NyAwLjUzMTQ0OTgsMC41MzE0NjcgMC4yOTM2NjAyLDEuNTllLTQgMC41MzE4MjAyLC0wLjIzNzgxIDAuNTMxOSwtMC41MzE0NjcgMS42MDFlLTQsLTAuMjkzODI1MiAtMC4yMzgwNjk5LC0wLjUzMjA1NzIgLTAuNTMxOSwtMC41MzE4OTgyIHogbSAyLjI2NDM2MDcsMC40ODA1NjM0IGMgLTAuNTg2ODksLTEuOTZlLTQgLTEuMDYyNzEwOSwwLjQ3NTYxNDggLTEuMDYyNTIwOSwxLjA2MjUwMjggNWUtNSwwLjU4NjcxOSAwLjQ3NTgwMDksMS4wNjIyNjcgMS4wNjI1MjA5LDEuMDYyMDcxIDAuNTg2NTQsLTUuOGUtNSAxLjA2MjAxLC0wLjQ3NTUzMSAxLjA2MjA2LC0xLjA2MjA3MSAxLjllLTQsLTAuNTg2NzA4IC0wLjQ3NTM1LC0xLjA2MjQ0NDggLTEuMDYyMDYsLTEuMDYyNTAyOCB6IiBzdHlsZT0ib3BhY2l0eToxO2ZpbGw6I2ZmZmZmZjtmaWxsLW9wYWNpdHk6MTtzdHJva2U6I2VlZWVlZTtzdHJva2Utd2lkdGg6MDtzdHJva2UtbWl0ZXJsaW1pdDoxMDtzdHJva2UtZGFzaGFycmF5Om5vbmU7c3Ryb2tlLWRhc2hvZmZzZXQ6MTEuMjM2NDIzNDk7c3Ryb2tlLW9wYWNpdHk6MSIgaW5rc2NhcGU6Y29ubmVjdG9yLWN1cnZhdHVyZT0iMCIvPiYjeGE7ICA8L2c+JiN4YTs8L3N2Zz4=;strokeWidth=2;fontColor=#000000;" parent="1" vertex="1">
          <mxGeometry x="327" y="540" width="65" height="65" as="geometry" />
        </mxCell>
        <mxCell id="G5toYubQoZsCjo8l9rVy-22" value="" style="shape=image;verticalLabelPosition=bottom;verticalAlign=top;imageAspect=0;aspect=fixed;image=data:image/svg+xml,PHN2ZyB4bWxuczpkYz0iaHR0cDovL3B1cmwub3JnL2RjL2VsZW1lbnRzLzEuMS8iIHhtbG5zOmNjPSJodHRwOi8vY3JlYXRpdmVjb21tb25zLm9yZy9ucyMiIHhtbG5zOnJkZj0iaHR0cDovL3d3dy53My5vcmcvMTk5OS8wMi8yMi1yZGYtc3ludGF4LW5zIyIgeG1sbnM6c3ZnPSJodHRwOi8vd3d3LnczLm9yZy8yMDAwL3N2ZyIgeG1sbnM9Imh0dHA6Ly93d3cudzMub3JnLzIwMDAvc3ZnIiB4bWxuczpzb2RpcG9kaT0iaHR0cDovL3NvZGlwb2RpLnNvdXJjZWZvcmdlLm5ldC9EVEQvc29kaXBvZGktMC5kdGQiIHhtbG5zOmlua3NjYXBlPSJodHRwOi8vd3d3Lmlua3NjYXBlLm9yZy9uYW1lc3BhY2VzL2lua3NjYXBlIiB3aWR0aD0iMTguMDM1MzM0bW0iIGhlaWdodD0iMTcuNTAwMzc4bW0iIHZpZXdCb3g9IjAgMCAxOC4wMzUzMzQgMTcuNTAwMzc4IiB2ZXJzaW9uPSIxLjEiIGlkPSJzdmcxMzgyNiIgaW5rc2NhcGU6dmVyc2lvbj0iMC45MSByMTM3MjUiIHNvZGlwb2RpOmRvY25hbWU9Im5vZGUuc3ZnIj4mI3hhOyAgPGRlZnMgaWQ9ImRlZnMxMzgyMCIvPiYjeGE7ICA8c29kaXBvZGk6bmFtZWR2aWV3IGlkPSJiYXNlIiBwYWdlY29sb3I9IiNmZmZmZmYiIGJvcmRlcmNvbG9yPSIjNjY2NjY2IiBib3JkZXJvcGFjaXR5PSIxLjAiIGlua3NjYXBlOnBhZ2VvcGFjaXR5PSIwLjAiIGlua3NjYXBlOnBhZ2VzaGFkb3c9IjIiIGlua3NjYXBlOnpvb209IjgiIGlua3NjYXBlOmN4PSIxNi44NDc0OTYiIGlua3NjYXBlOmN5PSIzMy43NTIyMzkiIGlua3NjYXBlOmRvY3VtZW50LXVuaXRzPSJtbSIgaW5rc2NhcGU6Y3VycmVudC1sYXllcj0ibGF5ZXIxIiBzaG93Z3JpZD0iZmFsc2UiIGlua3NjYXBlOndpbmRvdy13aWR0aD0iMTQ0MCIgaW5rc2NhcGU6d2luZG93LWhlaWdodD0iNzc1IiBpbmtzY2FwZTp3aW5kb3cteD0iMCIgaW5rc2NhcGU6d2luZG93LXk9IjEiIGlua3NjYXBlOndpbmRvdy1tYXhpbWl6ZWQ9IjEiIGZpdC1tYXJnaW4tdG9wPSIwIiBmaXQtbWFyZ2luLWxlZnQ9IjAiIGZpdC1tYXJnaW4tcmlnaHQ9IjAiIGZpdC1tYXJnaW4tYm90dG9tPSIwIi8+JiN4YTsgICYjeGE7ICA8ZyBpbmtzY2FwZTpsYWJlbD0iQ2FscXVlIDEiIGlua3NjYXBlOmdyb3VwbW9kZT0ibGF5ZXIiIGlkPSJsYXllcjEiIHRyYW5zZm9ybT0idHJhbnNsYXRlKC0wLjk5MjYyNjM4LC0xLjE3NDE4MSkiPiYjeGE7ICAgIDxnIGlkPSJnNzAiIHRyYW5zZm9ybT0ibWF0cml4KDEuMDE0ODg4NywwLDAsMS4wMTQ4ODg3LDE2LjkwMjE0NiwtMi42OTg3MjYpIj4mI3hhOyAgICAgIDxwYXRoIGlua3NjYXBlOmV4cG9ydC15ZHBpPSIyNTAuNTUiIGlua3NjYXBlOmV4cG9ydC14ZHBpPSIyNTAuNTUiIGlua3NjYXBlOmV4cG9ydC1maWxlbmFtZT0ibmV3LnBuZyIgaW5rc2NhcGU6Y29ubmVjdG9yLWN1cnZhdHVyZT0iMCIgaWQ9InBhdGgzMDU1IiBkPSJtIC02Ljg0OTIwMTUsNC4yNzI0NjY4IGEgMS4xMTkxMjU1LDEuMTA5OTY3MSAwIDAgMCAtMC40Mjg4ODE4LDAuMTA4NTMwMyBsIC01Ljg1MjQwMzcsMi43OTYzMzk0IGEgMS4xMTkxMjU1LDEuMTA5OTY3MSAwIDAgMCAtMC42MDU1MjQsMC43NTI5NzU5IGwgLTEuNDQzODI4LDYuMjgxMjg0NiBhIDEuMTE5MTI1NSwxLjEwOTk2NzEgMCAwIDAgMC4xNTE5NDMsMC44NTEwMjggMS4xMTkxMjU1LDEuMTA5OTY3MSAwIDAgMCAwLjA2MzYyLDAuMDg4MzIgbCA0LjA1MDgsNS4wMzY1NTUgYSAxLjExOTEyNTUsMS4xMDk5NjcxIDAgMCAwIDAuODc0OTc5LDAuNDE3NjU0IGwgNi40OTYxMDExLC0wLjAwMTUgYSAxLjExOTEyNTUsMS4xMDk5NjcxIDAgMCAwIDAuODc0OTc4OCwtMC40MTY5MDYgTCAxLjM4MTg4NzIsMTUuMTQ5NDUzIEEgMS4xMTkxMjU1LDEuMTA5OTY3MSAwIDAgMCAxLjU5ODE5ODYsMTQuMjEwMTA0IEwgMC4xNTIxMjY1Nyw3LjkyODgxNTQgQSAxLjExOTEyNTUsMS4xMDk5NjcxIDAgMCAwIC0wLjQ1MzM5Nzk0LDcuMTc1ODM5NiBMIC02LjMwNjU0OTYsNC4zODA5OTcxIEEgMS4xMTkxMjU1LDEuMTA5OTY3MSAwIDAgMCAtNi44NDkyMDE1LDQuMjcyNDY2OCBaIiBzdHlsZT0iZmlsbDojMzI2Y2U1O2ZpbGwtb3BhY2l0eToxO3N0cm9rZTpub25lO3N0cm9rZS13aWR0aDowO3N0cm9rZS1taXRlcmxpbWl0OjQ7c3Ryb2tlLWRhc2hhcnJheTpub25lO3N0cm9rZS1vcGFjaXR5OjEiLz4mI3hhOyAgICAgIDxwYXRoIGlkPSJwYXRoMzA1NC0yLTkiIGQ9Ik0gLTYuODUyMzQzNSwzLjgxNzYzNzIgQSAxLjE4MTQzMDQsMS4xNzE3NjIgMCAwIDAgLTcuMzA0NDI4NCwzLjkzMjkwNCBsIC02LjE3ODc0MjYsMi45NTEyNzU4IGEgMS4xODE0MzA0LDEuMTcxNzYyIDAgMCAwIC0wLjYzOTIwNiwwLjc5NDg5MSBsIC0xLjUyMzkxNSw2LjYzMDgyODIgYSAxLjE4MTQzMDQsMS4xNzE3NjIgMCAwIDAgMC4xNjAxNzUsMC44OTg5MyAxLjE4MTQzMDQsMS4xNzE3NjIgMCAwIDAgMC4wNjczNiwwLjA5MjgxIGwgNC4yNzYwOTQsNS4zMTcyMzYgYSAxLjE4MTQzMDQsMS4xNzE3NjIgMCAwIDAgMC45MjM2MywwLjQ0MDg1OCBsIDYuODU3NjE4OCwtMC4wMDE1IGEgMS4xODE0MzA0LDEuMTcxNzYyIDAgMCAwIDAuOTIzNjMwOCwtMC40NDAxMSBsIDQuMjc0NTk2NiwtNS4zMTc5ODUgYSAxLjE4MTQzMDQsMS4xNzE3NjIgMCAwIDAgMC4yMjgyODgsLTAuOTkwOTkzIEwgMC41Mzg5NDQzOSw3LjY3NzU3MzggQSAxLjE4MTQzMDQsMS4xNzE3NjIgMCAwIDAgLTAuMTAwMjYxMDEsNi44ODM0MzEzIEwgLTYuMjc5MDAzNywzLjkzMjE1NTUgQSAxLjE4MTQzMDQsMS4xNzE3NjIgMCAwIDAgLTYuODUyMzQzNSwzLjgxNzYzNzIgWiBtIDAuMDAyOTksMC40NTUwNzg5IGEgMS4xMTkxMjU1LDEuMTA5OTY3MSAwIDAgMSAwLjU0MjY1MTcsMC4xMDg1MzAzIGwgNS44NTMxNTE2OSwyLjc5NDg0MjUgQSAxLjExOTEyNTUsMS4xMDk5NjcxIDAgMCAxIDAuMTUxOTc4MTEsNy45MjkwNjQ4IEwgMS41OTgwNTEsMTQuMjEwMzUgYSAxLjExOTEyNTUsMS4xMDk5NjcxIDAgMCAxIC0wLjIxNjMxMjMsMC45MzkzNDggbCAtNC4wNDkzMDMyLDUuMDM3MzA0IGEgMS4xMTkxMjU1LDEuMTA5OTY3MSAwIDAgMSAtMC44NzQ5Nzg5LDAuNDE2OTA2IGwgLTYuNDk2MTAwNiwwLjAwMTUgYSAxLjExOTEyNTUsMS4xMDk5NjcxIDAgMCAxIC0wLjg3NDk3OSwtMC40MTc2NTIgbCAtNC4wNTA4LC01LjAzNjU1NCBhIDEuMTE5MTI1NSwxLjEwOTk2NzEgMCAwIDEgLTAuMDYzNjIsLTAuMDg4MzIgMS4xMTkxMjU1LDEuMTA5OTY3MSAwIDAgMSAtMC4xNTE5NDIsLTAuODUxMDI4IGwgMS40NDM4MjcsLTYuMjgxMjg1MyBhIDEuMTE5MTI1NSwxLjEwOTk2NzEgMCAwIDEgMC42MDU1MjQsLTAuNzUyOTc1OCBsIDUuODUyNDAzNiwtMi43OTYzMzk1IGEgMS4xMTkxMjU1LDEuMTA5OTY3MSAwIDAgMSAwLjQyODg4MTksLTAuMTA4NTMwMyB6IiBzdHlsZT0iY29sb3I6IzAwMDAwMDtmb250LXN0eWxlOm5vcm1hbDtmb250LXZhcmlhbnQ6bm9ybWFsO2ZvbnQtd2VpZ2h0Om5vcm1hbDtmb250LXN0cmV0Y2g6bm9ybWFsO2ZvbnQtc2l6ZTptZWRpdW07bGluZS1oZWlnaHQ6bm9ybWFsO2ZvbnQtZmFtaWx5OlNhbnM7LWlua3NjYXBlLWZvbnQtc3BlY2lmaWNhdGlvbjpTYW5zO3RleHQtaW5kZW50OjA7dGV4dC1hbGlnbjpzdGFydDt0ZXh0LWRlY29yYXRpb246bm9uZTt0ZXh0LWRlY29yYXRpb24tbGluZTpub25lO2xldHRlci1zcGFjaW5nOm5vcm1hbDt3b3JkLXNwYWNpbmc6bm9ybWFsO3RleHQtdHJhbnNmb3JtOm5vbmU7d3JpdGluZy1tb2RlOmxyLXRiO2RpcmVjdGlvbjpsdHI7YmFzZWxpbmUtc2hpZnQ6YmFzZWxpbmU7dGV4dC1hbmNob3I6c3RhcnQ7ZGlzcGxheTppbmxpbmU7b3ZlcmZsb3c6dmlzaWJsZTt2aXNpYmlsaXR5OnZpc2libGU7ZmlsbDojZmZmZmZmO2ZpbGwtb3BhY2l0eToxO2ZpbGwtcnVsZTpub256ZXJvO3N0cm9rZTpub25lO3N0cm9rZS13aWR0aDowO3N0cm9rZS1taXRlcmxpbWl0OjQ7c3Ryb2tlLWRhc2hhcnJheTpub25lO21hcmtlcjpub25lO2VuYWJsZS1iYWNrZ3JvdW5kOmFjY3VtdWxhdGUiIGlua3NjYXBlOmNvbm5lY3Rvci1jdXJ2YXR1cmU9IjAiLz4mI3hhOyAgICA8L2c+JiN4YTsgICAgPHRleHQgaWQ9InRleHQyMDY2IiB5PSIxNi44MTE3NzUiIHg9IjkuOTc2NTMxIiBzdHlsZT0iZm9udC1zdHlsZTpub3JtYWw7Zm9udC13ZWlnaHQ6bm9ybWFsO2ZvbnQtc2l6ZToxMC41ODMzMzMwMnB4O2xpbmUtaGVpZ2h0OjYuNjE0NTgzNDlweDtmb250LWZhbWlseTpTYW5zO2xldHRlci1zcGFjaW5nOjBweDt3b3JkLXNwYWNpbmc6MHB4O2ZpbGw6I2ZmZmZmZjtmaWxsLW9wYWNpdHk6MTtzdHJva2U6bm9uZTtzdHJva2Utd2lkdGg6MC4yNjQ1ODMzMnB4O3N0cm9rZS1saW5lY2FwOmJ1dHQ7c3Ryb2tlLWxpbmVqb2luOm1pdGVyO3N0cm9rZS1vcGFjaXR5OjEiIHhtbDpzcGFjZT0icHJlc2VydmUiPjx0c3BhbiBzdHlsZT0iZm9udC1zdHlsZTpub3JtYWw7Zm9udC12YXJpYW50Om5vcm1hbDtmb250LXdlaWdodDpub3JtYWw7Zm9udC1zdHJldGNoOm5vcm1hbDtmb250LXNpemU6Mi44MjIyMjIyM3B4O2ZvbnQtZmFtaWx5OkFyaWFsOy1pbmtzY2FwZS1mb250LXNwZWNpZmljYXRpb246J0FyaWFsLCBOb3JtYWwnO3RleHQtYWxpZ246Y2VudGVyO3dyaXRpbmctbW9kZTpsci10Yjt0ZXh0LWFuY2hvcjptaWRkbGU7ZmlsbDojZmZmZmZmO2ZpbGwtb3BhY2l0eToxO3N0cm9rZS13aWR0aDowLjI2NDU4MzMycHgiIHk9IjE2LjgxMTc3NSIgeD0iOS45NzY1MzEiIGlkPSJ0c3BhbjIwNjQiIHNvZGlwb2RpOnJvbGU9ImxpbmUiPm5vZGU8L3RzcGFuPjwvdGV4dD4mI3hhOyAgICA8cGF0aCBzb2RpcG9kaTpub2RldHlwZXM9ImNjY2NjY2NjY2NjY2NjY2NjY2NjY2NjY2NjY2NjY2NjY2NjY2NjY2NjY2NjY2NjY2NjY2NjY2NjY2NjY2NjY2NjY2NjY2NjY2NjY2NjY2NjY2Njc2NjY2NjY2NjY2NjY2NjY2MiIGlkPSJwYXRoMTk5NCIgZD0ibSA5Ljk5MjE4MDMsNC4wOTQyNTQ0IGMgLTAuMTM4MzI5OCwtMC4wMDQ0IC0zLjk5NTA5OTgsMS44OTE4NzMxIC00LjA0NTUyOTksMS45ODkxMTkxIC0wLjEyMTE3LDAuMjMzNjgyIC0wLjk5ODksNC4yODE4Mjc1IC0wLjk0NzMxLDQuMzY5MDc0NSAwLjAzLDAuMDUwNjUgMC42NjIxOSwwLjg1MTg2MSAxLjQwNDU4LDEuNzgwMzI3IGwgMS4zNDk4MjAxLDEuNjg4MDE0IDIuMjIxMTkwMSw5LjMxZS00IDIuMjIxNjQwNCw5LjMxZS00IDEuNDEzMjEsLTEuNzY1NzMxIDEuNDEzNjUsLTEuNzY1MjI4IC0wLjQ5NDc5LC0yLjE2ODU3NjQgYyAtMC4yNzIyLC0xLjE5Mjc2NjEgLTAuNTE1NjYsLTIuMTg4NjE0MSAtMC41NDA1MywtMi4yMTI2MDQxIC0wLjA2OTUsLTAuMDY2ODggLTMuOTIwOTYsLTEuOTEzNzk0MSAtMy45OTU5MzA3LC0xLjkxNjIxNTEgeiBtIDAuMTk2MTQwNywwLjk0Nzc1MyAwLjkwODkzLDAuMjYzNTc3MSAtMC45MDg5MywwLjI2MzU3NiAtMC45MDg5MjA5LC0wLjI2MzU3NiB6IG0gLTAuOTA4OTIwOSwwLjM2NDUyIDAuODUxMTIwOSwwLjI1MzIyNjEgLTAuMDA0LDEuMTgzMjg5IC0wLjg0NjgxMDksLTAuNDY5MzQ3IHogbSAxLjgxNzg1MDksMCAwLDAuOTY3MTY4MSAtMC44NDY3OSwwLjQ2OTM0NyAtMC4wMDQsLTEuMTgzMjg5IHogTSA4Ljg5OTc3MDUsNy4wMjEyMDU1IDkuODA4NzEwMSw3LjI4NDc4MTIgOC44OTk3NzA1LDcuNTQ4MzU4MiA3Ljk5MDg1MDQsNy4yODQ3ODEyIFogbSAyLjIwODcwMDUsMCAwLjkwODk0LDAuMjYzNTc1NyAtMC45MDg5NCwwLjI2MzU3NyAtMC45MDg5MywtMC4yNjM1NzcgeiBtIC0zLjExNzYyMDYsMC4zNjQ1MTk3IDAuODUxMTIwMiwwLjI1Mjc5MiAtMC4wMDQsMS4xODMyOTA4IC0wLjg0NjgxOTksLTAuNDY4OTE1IHogbSAxLjgxNzg1OTcsMCAwLDAuOTY3MTY3OCAtMC44NDY4MDk4LDAuNDY4OTE1IC0wLjAwNCwtMS4xODMyOTA4IHogbSAwLjM5MDgzMDksMCAwLjg1MTEzLDAuMjUyNzkyIC0wLjAwNCwxLjE4MzI5MDggLTAuODQ2ODIsLTAuNDY4OTE1IHogbSAxLjgxNzg3LDAgMCwwLjk2NzE2NzggLTAuODQ2ODIsMC40Njg5MTUgLTAuMDA0LC0xLjE4MzI5MDggeiBNIDguNTY3NzUwNSw4LjkwMDc1MzQgYyAwLjI3MDYyOTksMC4wMDk2IDAuMDYxMSwwLjI4MTkwOSAwLjM2ODQxMDEsMC40Mjc5MzUgMC4zMjc3NDk1LDAuMTU1NzY0NCAwLjM5NTM5OTUsLTAuMjM1MzU0IDAuNjAxMzM5NSwwLjA2MzQxIDAuMjA1OTksMC4yOTg3NjY0IC0wLjE4MzM5LDAuMjIzMjM5NCAtMC4xNTQ0MywwLjU4NDk1NjggMC4wMjksMC4zNjE3MTg4IDAuNDAxNjUsMC4yMjQ4NTg4IDAuMjQ1ODksMC41NTI2MDY4IC0wLjE1NTc1LDAuMzI3NzQ2IC0wLjI4NTMyLC0wLjA0NzY0IC0wLjU4NDA4OTUsMC4xNTgzMTcgLTAuMjk4NzQwMSwwLjIwNTk1NyAwLjAwNiwwLjQ2MDIwOCAtMC4zNTU0NiwwLjQ4OTE5MiAtMC4zNjE3NDAxLDAuMDI4OTggLTAuMTAxNTAwMSwtMC4yNzA0NDcgLTAuNDI5MjQsLTAuNDI2MjA4IC0wLjMyNzc1LC0wLjE1NTc2NSAtMC4zOTUzODAxLDAuMjM0OTIxIC0wLjYwMTM0MDIsLTAuMDYzODUgLTAuMjA1OTU5OSwtMC4yOTg3NjcgMC4xODM4Mjk5LC0wLjIyMjgxIDAuMTU0ODUsLTAuNTg0NTI4IC0wLjAyOSwtMC4zNjE3MTgyIC0wLjQwMTY0OTksLTAuMjI0ODU5MiAtMC4yNDU4NywtMC41NTI2MDQyIDAuMTU1NzUwMSwtMC4zMjc3NDk0IDAuMjg0ODgwMSwwLjA0NzY0IDAuNTgzNjUwMiwtMC4xNTgzMjA0IDAuMjk4Nzg5OCwtMC4yMDU5NTYgLTAuMDA2LC0wLjQ2MDIwOCAwLjM1NTkwOTksLTAuNDg5MTkgMC4wMjI0OTksLTAuMDAxOCAwLjA0MjQsLTAuMDAyMyAwLjA2MDQsLTAuMDAxOCB6IG0gMi4zMzU5NjA1LDAuMzYyNzk0IGMgMC40ODMzNSwwLjAxMzU4IDAuMDE0NiwwLjQ2NzIxODQgMC40NTU5NiwwLjY2NDc2NjQgMC40NDE0NCwwLjE5NzU0ODIgMC40NjcxNCwtMC40NTQxMDMgMC43OTkzNywtMC4xMDI2NjkgMC4zMzIyMSwwLjM1MTQzMjIgLTAuMzE5OTcsMC4zNDA2NDAyIC0wLjE0NzUzLDAuNzkyNDU1MiAwLjE3MjQzLDAuNDUxODEzIDAuNjUxNjMsMC4wMDkyIDAuNjM4MDIsMC40OTI2NCAtMC4wMTM3LDAuNDgzNDExIC0wLjQ2NzIzLDAuMDE0NTYgLTAuNjY0NzcsMC40NTU5NzcgLTAuMTk3NTUsMC40NDE0MTIgMC40NTQxLDAuNDY3MTQzIDAuMTAyNjYsMC43OTkzNTcgLTAuMzUxNDEsMC4zMzIyMTIgLTAuMzQwMjEsLTAuMzE5OTc0IC0wLjc5MjAyLC0wLjE0NzUzNCAtMC40NTE4MywwLjE3MjQzNyAtMC4wMDksMC42NTE2MSAtMC40OTI2NSwwLjYzODAxOSAtMC40ODMzOSwtMC4wMTM1OCAtMC4wMTQ2LC0wLjQ2NzIxNiAtMC40NTU5NiwtMC42NjQ3NjQgLTAuNDQxNDEwNSwtMC4xOTc1NTEgLTAuNDY3NTgwNSwwLjQ1NDEwMiAtMC43OTk3OTA5LDAuMTAyNjY5IC0wLjMzMjIwOTcsLTAuMzUxNDMxIDAuMzE5OTgwNCwtMC4zNDAyMDkgMC4xNDc1NCwtMC43OTIwMjUgLTAuMTcyNDUsLTAuNDUxODE1IC0wLjY1MTYyOTYsLTAuMDA5MiAtMC42MzgwMjk1LC0wLjQ5MjY0MiAwLjAxMzY5OSwtMC40ODM0MDggMC40NjcyMDk1LC0wLjAxNDk5IDAuNjY0Nzc5NSwtMC40NTY0MDUgMC4xOTc1MjA0LC0wLjQ0MTQxNCAtMC40NTQxMSwtMC40NjcxNDMgLTAuMTAyNjksLTAuNzk5MzU3MiAwLjM1MTQ1MDUsLTAuMzMyMjE0IDAuMzQwNjUwNSwwLjMxOTk3MTIgMC43OTI0NjA5LDAuMTQ3NTM0IDAuNDUxODQsLTAuMTcyNDQgMC4wMDksLTAuNjUxNjExNCAwLjQ5MjY1LC0wLjYzODAyMTQgeiBNIDguNTg4ODkwMyw5LjUxNzIwMjggYyAtMC4yOTM2NDk5LDllLTUgLTAuNTMxNjA5OCwwLjIzODI0OSAtMC41MzE0NDk4LDAuNTMxODk4MiA3Ljk5ZS01LDAuMjkzNDgxIDAuMjM3OTcwMSwwLjUzMTM3NyAwLjUzMTQ0OTgsMC41MzE0NjcgMC4yOTM2NjAyLDEuNTllLTQgMC41MzE4MjAyLC0wLjIzNzgxIDAuNTMxOSwtMC41MzE0NjcgMS42MDFlLTQsLTAuMjkzODI1MiAtMC4yMzgwNjk5LC0wLjUzMjA1NzIgLTAuNTMxOSwtMC41MzE4OTgyIHogbSAyLjI2NDM2MDcsMC40ODA1NjM0IGMgLTAuNTg2ODksLTEuOTZlLTQgLTEuMDYyNzEwOSwwLjQ3NTYxNDggLTEuMDYyNTIwOSwxLjA2MjUwMjggNWUtNSwwLjU4NjcxOSAwLjQ3NTgwMDksMS4wNjIyNjcgMS4wNjI1MjA5LDEuMDYyMDcxIDAuNTg2NTQsLTUuOGUtNSAxLjA2MjAxLC0wLjQ3NTUzMSAxLjA2MjA2LC0xLjA2MjA3MSAxLjllLTQsLTAuNTg2NzA4IC0wLjQ3NTM1LC0xLjA2MjQ0NDggLTEuMDYyMDYsLTEuMDYyNTAyOCB6IiBzdHlsZT0ib3BhY2l0eToxO2ZpbGw6I2ZmZmZmZjtmaWxsLW9wYWNpdHk6MTtzdHJva2U6I2VlZWVlZTtzdHJva2Utd2lkdGg6MDtzdHJva2UtbWl0ZXJsaW1pdDoxMDtzdHJva2UtZGFzaGFycmF5Om5vbmU7c3Ryb2tlLWRhc2hvZmZzZXQ6MTEuMjM2NDIzNDk7c3Ryb2tlLW9wYWNpdHk6MSIgaW5rc2NhcGU6Y29ubmVjdG9yLWN1cnZhdHVyZT0iMCIvPiYjeGE7ICA8L2c+JiN4YTs8L3N2Zz4=;strokeWidth=2;fontColor=#000000;" parent="1" vertex="1">
          <mxGeometry x="414" y="540" width="65" height="65" as="geometry" />
        </mxCell>
        <mxCell id="G5toYubQoZsCjo8l9rVy-24" value="" style="shape=image;verticalLabelPosition=bottom;verticalAlign=top;imageAspect=0;aspect=fixed;image=data:image/svg+xml,PHN2ZyB4bWxuczpkYz0iaHR0cDovL3B1cmwub3JnL2RjL2VsZW1lbnRzLzEuMS8iIHhtbG5zOmNjPSJodHRwOi8vY3JlYXRpdmVjb21tb25zLm9yZy9ucyMiIHhtbG5zOnJkZj0iaHR0cDovL3d3dy53My5vcmcvMTk5OS8wMi8yMi1yZGYtc3ludGF4LW5zIyIgeG1sbnM6c3ZnPSJodHRwOi8vd3d3LnczLm9yZy8yMDAwL3N2ZyIgeG1sbnM9Imh0dHA6Ly93d3cudzMub3JnLzIwMDAvc3ZnIiB4bWxuczpzb2RpcG9kaT0iaHR0cDovL3NvZGlwb2RpLnNvdXJjZWZvcmdlLm5ldC9EVEQvc29kaXBvZGktMC5kdGQiIHhtbG5zOmlua3NjYXBlPSJodHRwOi8vd3d3Lmlua3NjYXBlLm9yZy9uYW1lc3BhY2VzL2lua3NjYXBlIiB3aWR0aD0iMTguMDM1MzM0bW0iIGhlaWdodD0iMTcuNTAwMzc4bW0iIHZpZXdCb3g9IjAgMCAxOC4wMzUzMzQgMTcuNTAwMzc4IiB2ZXJzaW9uPSIxLjEiIGlkPSJzdmcxMzgyNiIgaW5rc2NhcGU6dmVyc2lvbj0iMC45MSByMTM3MjUiIHNvZGlwb2RpOmRvY25hbWU9Im5vZGUuc3ZnIj4mI3hhOyAgPGRlZnMgaWQ9ImRlZnMxMzgyMCIvPiYjeGE7ICA8c29kaXBvZGk6bmFtZWR2aWV3IGlkPSJiYXNlIiBwYWdlY29sb3I9IiNmZmZmZmYiIGJvcmRlcmNvbG9yPSIjNjY2NjY2IiBib3JkZXJvcGFjaXR5PSIxLjAiIGlua3NjYXBlOnBhZ2VvcGFjaXR5PSIwLjAiIGlua3NjYXBlOnBhZ2VzaGFkb3c9IjIiIGlua3NjYXBlOnpvb209IjgiIGlua3NjYXBlOmN4PSIxNi44NDc0OTYiIGlua3NjYXBlOmN5PSIzMy43NTIyMzkiIGlua3NjYXBlOmRvY3VtZW50LXVuaXRzPSJtbSIgaW5rc2NhcGU6Y3VycmVudC1sYXllcj0ibGF5ZXIxIiBzaG93Z3JpZD0iZmFsc2UiIGlua3NjYXBlOndpbmRvdy13aWR0aD0iMTQ0MCIgaW5rc2NhcGU6d2luZG93LWhlaWdodD0iNzc1IiBpbmtzY2FwZTp3aW5kb3cteD0iMCIgaW5rc2NhcGU6d2luZG93LXk9IjEiIGlua3NjYXBlOndpbmRvdy1tYXhpbWl6ZWQ9IjEiIGZpdC1tYXJnaW4tdG9wPSIwIiBmaXQtbWFyZ2luLWxlZnQ9IjAiIGZpdC1tYXJnaW4tcmlnaHQ9IjAiIGZpdC1tYXJnaW4tYm90dG9tPSIwIi8+JiN4YTsgICYjeGE7ICA8ZyBpbmtzY2FwZTpsYWJlbD0iQ2FscXVlIDEiIGlua3NjYXBlOmdyb3VwbW9kZT0ibGF5ZXIiIGlkPSJsYXllcjEiIHRyYW5zZm9ybT0idHJhbnNsYXRlKC0wLjk5MjYyNjM4LC0xLjE3NDE4MSkiPiYjeGE7ICAgIDxnIGlkPSJnNzAiIHRyYW5zZm9ybT0ibWF0cml4KDEuMDE0ODg4NywwLDAsMS4wMTQ4ODg3LDE2LjkwMjE0NiwtMi42OTg3MjYpIj4mI3hhOyAgICAgIDxwYXRoIGlua3NjYXBlOmV4cG9ydC15ZHBpPSIyNTAuNTUiIGlua3NjYXBlOmV4cG9ydC14ZHBpPSIyNTAuNTUiIGlua3NjYXBlOmV4cG9ydC1maWxlbmFtZT0ibmV3LnBuZyIgaW5rc2NhcGU6Y29ubmVjdG9yLWN1cnZhdHVyZT0iMCIgaWQ9InBhdGgzMDU1IiBkPSJtIC02Ljg0OTIwMTUsNC4yNzI0NjY4IGEgMS4xMTkxMjU1LDEuMTA5OTY3MSAwIDAgMCAtMC40Mjg4ODE4LDAuMTA4NTMwMyBsIC01Ljg1MjQwMzcsMi43OTYzMzk0IGEgMS4xMTkxMjU1LDEuMTA5OTY3MSAwIDAgMCAtMC42MDU1MjQsMC43NTI5NzU5IGwgLTEuNDQzODI4LDYuMjgxMjg0NiBhIDEuMTE5MTI1NSwxLjEwOTk2NzEgMCAwIDAgMC4xNTE5NDMsMC44NTEwMjggMS4xMTkxMjU1LDEuMTA5OTY3MSAwIDAgMCAwLjA2MzYyLDAuMDg4MzIgbCA0LjA1MDgsNS4wMzY1NTUgYSAxLjExOTEyNTUsMS4xMDk5NjcxIDAgMCAwIDAuODc0OTc5LDAuNDE3NjU0IGwgNi40OTYxMDExLC0wLjAwMTUgYSAxLjExOTEyNTUsMS4xMDk5NjcxIDAgMCAwIDAuODc0OTc4OCwtMC40MTY5MDYgTCAxLjM4MTg4NzIsMTUuMTQ5NDUzIEEgMS4xMTkxMjU1LDEuMTA5OTY3MSAwIDAgMCAxLjU5ODE5ODYsMTQuMjEwMTA0IEwgMC4xNTIxMjY1Nyw3LjkyODgxNTQgQSAxLjExOTEyNTUsMS4xMDk5NjcxIDAgMCAwIC0wLjQ1MzM5Nzk0LDcuMTc1ODM5NiBMIC02LjMwNjU0OTYsNC4zODA5OTcxIEEgMS4xMTkxMjU1LDEuMTA5OTY3MSAwIDAgMCAtNi44NDkyMDE1LDQuMjcyNDY2OCBaIiBzdHlsZT0iZmlsbDojMzI2Y2U1O2ZpbGwtb3BhY2l0eToxO3N0cm9rZTpub25lO3N0cm9rZS13aWR0aDowO3N0cm9rZS1taXRlcmxpbWl0OjQ7c3Ryb2tlLWRhc2hhcnJheTpub25lO3N0cm9rZS1vcGFjaXR5OjEiLz4mI3hhOyAgICAgIDxwYXRoIGlkPSJwYXRoMzA1NC0yLTkiIGQ9Ik0gLTYuODUyMzQzNSwzLjgxNzYzNzIgQSAxLjE4MTQzMDQsMS4xNzE3NjIgMCAwIDAgLTcuMzA0NDI4NCwzLjkzMjkwNCBsIC02LjE3ODc0MjYsMi45NTEyNzU4IGEgMS4xODE0MzA0LDEuMTcxNzYyIDAgMCAwIC0wLjYzOTIwNiwwLjc5NDg5MSBsIC0xLjUyMzkxNSw2LjYzMDgyODIgYSAxLjE4MTQzMDQsMS4xNzE3NjIgMCAwIDAgMC4xNjAxNzUsMC44OTg5MyAxLjE4MTQzMDQsMS4xNzE3NjIgMCAwIDAgMC4wNjczNiwwLjA5MjgxIGwgNC4yNzYwOTQsNS4zMTcyMzYgYSAxLjE4MTQzMDQsMS4xNzE3NjIgMCAwIDAgMC45MjM2MywwLjQ0MDg1OCBsIDYuODU3NjE4OCwtMC4wMDE1IGEgMS4xODE0MzA0LDEuMTcxNzYyIDAgMCAwIDAuOTIzNjMwOCwtMC40NDAxMSBsIDQuMjc0NTk2NiwtNS4zMTc5ODUgYSAxLjE4MTQzMDQsMS4xNzE3NjIgMCAwIDAgMC4yMjgyODgsLTAuOTkwOTkzIEwgMC41Mzg5NDQzOSw3LjY3NzU3MzggQSAxLjE4MTQzMDQsMS4xNzE3NjIgMCAwIDAgLTAuMTAwMjYxMDEsNi44ODM0MzEzIEwgLTYuMjc5MDAzNywzLjkzMjE1NTUgQSAxLjE4MTQzMDQsMS4xNzE3NjIgMCAwIDAgLTYuODUyMzQzNSwzLjgxNzYzNzIgWiBtIDAuMDAyOTksMC40NTUwNzg5IGEgMS4xMTkxMjU1LDEuMTA5OTY3MSAwIDAgMSAwLjU0MjY1MTcsMC4xMDg1MzAzIGwgNS44NTMxNTE2OSwyLjc5NDg0MjUgQSAxLjExOTEyNTUsMS4xMDk5NjcxIDAgMCAxIDAuMTUxOTc4MTEsNy45MjkwNjQ4IEwgMS41OTgwNTEsMTQuMjEwMzUgYSAxLjExOTEyNTUsMS4xMDk5NjcxIDAgMCAxIC0wLjIxNjMxMjMsMC45MzkzNDggbCAtNC4wNDkzMDMyLDUuMDM3MzA0IGEgMS4xMTkxMjU1LDEuMTA5OTY3MSAwIDAgMSAtMC44NzQ5Nzg5LDAuNDE2OTA2IGwgLTYuNDk2MTAwNiwwLjAwMTUgYSAxLjExOTEyNTUsMS4xMDk5NjcxIDAgMCAxIC0wLjg3NDk3OSwtMC40MTc2NTIgbCAtNC4wNTA4LC01LjAzNjU1NCBhIDEuMTE5MTI1NSwxLjEwOTk2NzEgMCAwIDEgLTAuMDYzNjIsLTAuMDg4MzIgMS4xMTkxMjU1LDEuMTA5OTY3MSAwIDAgMSAtMC4xNTE5NDIsLTAuODUxMDI4IGwgMS40NDM4MjcsLTYuMjgxMjg1MyBhIDEuMTE5MTI1NSwxLjEwOTk2NzEgMCAwIDEgMC42MDU1MjQsLTAuNzUyOTc1OCBsIDUuODUyNDAzNiwtMi43OTYzMzk1IGEgMS4xMTkxMjU1LDEuMTA5OTY3MSAwIDAgMSAwLjQyODg4MTksLTAuMTA4NTMwMyB6IiBzdHlsZT0iY29sb3I6IzAwMDAwMDtmb250LXN0eWxlOm5vcm1hbDtmb250LXZhcmlhbnQ6bm9ybWFsO2ZvbnQtd2VpZ2h0Om5vcm1hbDtmb250LXN0cmV0Y2g6bm9ybWFsO2ZvbnQtc2l6ZTptZWRpdW07bGluZS1oZWlnaHQ6bm9ybWFsO2ZvbnQtZmFtaWx5OlNhbnM7LWlua3NjYXBlLWZvbnQtc3BlY2lmaWNhdGlvbjpTYW5zO3RleHQtaW5kZW50OjA7dGV4dC1hbGlnbjpzdGFydDt0ZXh0LWRlY29yYXRpb246bm9uZTt0ZXh0LWRlY29yYXRpb24tbGluZTpub25lO2xldHRlci1zcGFjaW5nOm5vcm1hbDt3b3JkLXNwYWNpbmc6bm9ybWFsO3RleHQtdHJhbnNmb3JtOm5vbmU7d3JpdGluZy1tb2RlOmxyLXRiO2RpcmVjdGlvbjpsdHI7YmFzZWxpbmUtc2hpZnQ6YmFzZWxpbmU7dGV4dC1hbmNob3I6c3RhcnQ7ZGlzcGxheTppbmxpbmU7b3ZlcmZsb3c6dmlzaWJsZTt2aXNpYmlsaXR5OnZpc2libGU7ZmlsbDojZmZmZmZmO2ZpbGwtb3BhY2l0eToxO2ZpbGwtcnVsZTpub256ZXJvO3N0cm9rZTpub25lO3N0cm9rZS13aWR0aDowO3N0cm9rZS1taXRlcmxpbWl0OjQ7c3Ryb2tlLWRhc2hhcnJheTpub25lO21hcmtlcjpub25lO2VuYWJsZS1iYWNrZ3JvdW5kOmFjY3VtdWxhdGUiIGlua3NjYXBlOmNvbm5lY3Rvci1jdXJ2YXR1cmU9IjAiLz4mI3hhOyAgICA8L2c+JiN4YTsgICAgPHRleHQgaWQ9InRleHQyMDY2IiB5PSIxNi44MTE3NzUiIHg9IjkuOTc2NTMxIiBzdHlsZT0iZm9udC1zdHlsZTpub3JtYWw7Zm9udC13ZWlnaHQ6bm9ybWFsO2ZvbnQtc2l6ZToxMC41ODMzMzMwMnB4O2xpbmUtaGVpZ2h0OjYuNjE0NTgzNDlweDtmb250LWZhbWlseTpTYW5zO2xldHRlci1zcGFjaW5nOjBweDt3b3JkLXNwYWNpbmc6MHB4O2ZpbGw6I2ZmZmZmZjtmaWxsLW9wYWNpdHk6MTtzdHJva2U6bm9uZTtzdHJva2Utd2lkdGg6MC4yNjQ1ODMzMnB4O3N0cm9rZS1saW5lY2FwOmJ1dHQ7c3Ryb2tlLWxpbmVqb2luOm1pdGVyO3N0cm9rZS1vcGFjaXR5OjEiIHhtbDpzcGFjZT0icHJlc2VydmUiPjx0c3BhbiBzdHlsZT0iZm9udC1zdHlsZTpub3JtYWw7Zm9udC12YXJpYW50Om5vcm1hbDtmb250LXdlaWdodDpub3JtYWw7Zm9udC1zdHJldGNoOm5vcm1hbDtmb250LXNpemU6Mi44MjIyMjIyM3B4O2ZvbnQtZmFtaWx5OkFyaWFsOy1pbmtzY2FwZS1mb250LXNwZWNpZmljYXRpb246J0FyaWFsLCBOb3JtYWwnO3RleHQtYWxpZ246Y2VudGVyO3dyaXRpbmctbW9kZTpsci10Yjt0ZXh0LWFuY2hvcjptaWRkbGU7ZmlsbDojZmZmZmZmO2ZpbGwtb3BhY2l0eToxO3N0cm9rZS13aWR0aDowLjI2NDU4MzMycHgiIHk9IjE2LjgxMTc3NSIgeD0iOS45NzY1MzEiIGlkPSJ0c3BhbjIwNjQiIHNvZGlwb2RpOnJvbGU9ImxpbmUiPm5vZGU8L3RzcGFuPjwvdGV4dD4mI3hhOyAgICA8cGF0aCBzb2RpcG9kaTpub2RldHlwZXM9ImNjY2NjY2NjY2NjY2NjY2NjY2NjY2NjY2NjY2NjY2NjY2NjY2NjY2NjY2NjY2NjY2NjY2NjY2NjY2NjY2NjY2NjY2NjY2NjY2NjY2NjY2NjY2Njc2NjY2NjY2NjY2NjY2NjY2MiIGlkPSJwYXRoMTk5NCIgZD0ibSA5Ljk5MjE4MDMsNC4wOTQyNTQ0IGMgLTAuMTM4MzI5OCwtMC4wMDQ0IC0zLjk5NTA5OTgsMS44OTE4NzMxIC00LjA0NTUyOTksMS45ODkxMTkxIC0wLjEyMTE3LDAuMjMzNjgyIC0wLjk5ODksNC4yODE4Mjc1IC0wLjk0NzMxLDQuMzY5MDc0NSAwLjAzLDAuMDUwNjUgMC42NjIxOSwwLjg1MTg2MSAxLjQwNDU4LDEuNzgwMzI3IGwgMS4zNDk4MjAxLDEuNjg4MDE0IDIuMjIxMTkwMSw5LjMxZS00IDIuMjIxNjQwNCw5LjMxZS00IDEuNDEzMjEsLTEuNzY1NzMxIDEuNDEzNjUsLTEuNzY1MjI4IC0wLjQ5NDc5LC0yLjE2ODU3NjQgYyAtMC4yNzIyLC0xLjE5Mjc2NjEgLTAuNTE1NjYsLTIuMTg4NjE0MSAtMC41NDA1MywtMi4yMTI2MDQxIC0wLjA2OTUsLTAuMDY2ODggLTMuOTIwOTYsLTEuOTEzNzk0MSAtMy45OTU5MzA3LC0xLjkxNjIxNTEgeiBtIDAuMTk2MTQwNywwLjk0Nzc1MyAwLjkwODkzLDAuMjYzNTc3MSAtMC45MDg5MywwLjI2MzU3NiAtMC45MDg5MjA5LC0wLjI2MzU3NiB6IG0gLTAuOTA4OTIwOSwwLjM2NDUyIDAuODUxMTIwOSwwLjI1MzIyNjEgLTAuMDA0LDEuMTgzMjg5IC0wLjg0NjgxMDksLTAuNDY5MzQ3IHogbSAxLjgxNzg1MDksMCAwLDAuOTY3MTY4MSAtMC44NDY3OSwwLjQ2OTM0NyAtMC4wMDQsLTEuMTgzMjg5IHogTSA4Ljg5OTc3MDUsNy4wMjEyMDU1IDkuODA4NzEwMSw3LjI4NDc4MTIgOC44OTk3NzA1LDcuNTQ4MzU4MiA3Ljk5MDg1MDQsNy4yODQ3ODEyIFogbSAyLjIwODcwMDUsMCAwLjkwODk0LDAuMjYzNTc1NyAtMC45MDg5NCwwLjI2MzU3NyAtMC45MDg5MywtMC4yNjM1NzcgeiBtIC0zLjExNzYyMDYsMC4zNjQ1MTk3IDAuODUxMTIwMiwwLjI1Mjc5MiAtMC4wMDQsMS4xODMyOTA4IC0wLjg0NjgxOTksLTAuNDY4OTE1IHogbSAxLjgxNzg1OTcsMCAwLDAuOTY3MTY3OCAtMC44NDY4MDk4LDAuNDY4OTE1IC0wLjAwNCwtMS4xODMyOTA4IHogbSAwLjM5MDgzMDksMCAwLjg1MTEzLDAuMjUyNzkyIC0wLjAwNCwxLjE4MzI5MDggLTAuODQ2ODIsLTAuNDY4OTE1IHogbSAxLjgxNzg3LDAgMCwwLjk2NzE2NzggLTAuODQ2ODIsMC40Njg5MTUgLTAuMDA0LC0xLjE4MzI5MDggeiBNIDguNTY3NzUwNSw4LjkwMDc1MzQgYyAwLjI3MDYyOTksMC4wMDk2IDAuMDYxMSwwLjI4MTkwOSAwLjM2ODQxMDEsMC40Mjc5MzUgMC4zMjc3NDk1LDAuMTU1NzY0NCAwLjM5NTM5OTUsLTAuMjM1MzU0IDAuNjAxMzM5NSwwLjA2MzQxIDAuMjA1OTksMC4yOTg3NjY0IC0wLjE4MzM5LDAuMjIzMjM5NCAtMC4xNTQ0MywwLjU4NDk1NjggMC4wMjksMC4zNjE3MTg4IDAuNDAxNjUsMC4yMjQ4NTg4IDAuMjQ1ODksMC41NTI2MDY4IC0wLjE1NTc1LDAuMzI3NzQ2IC0wLjI4NTMyLC0wLjA0NzY0IC0wLjU4NDA4OTUsMC4xNTgzMTcgLTAuMjk4NzQwMSwwLjIwNTk1NyAwLjAwNiwwLjQ2MDIwOCAtMC4zNTU0NiwwLjQ4OTE5MiAtMC4zNjE3NDAxLDAuMDI4OTggLTAuMTAxNTAwMSwtMC4yNzA0NDcgLTAuNDI5MjQsLTAuNDI2MjA4IC0wLjMyNzc1LC0wLjE1NTc2NSAtMC4zOTUzODAxLDAuMjM0OTIxIC0wLjYwMTM0MDIsLTAuMDYzODUgLTAuMjA1OTU5OSwtMC4yOTg3NjcgMC4xODM4Mjk5LC0wLjIyMjgxIDAuMTU0ODUsLTAuNTg0NTI4IC0wLjAyOSwtMC4zNjE3MTgyIC0wLjQwMTY0OTksLTAuMjI0ODU5MiAtMC4yNDU4NywtMC41NTI2MDQyIDAuMTU1NzUwMSwtMC4zMjc3NDk0IDAuMjg0ODgwMSwwLjA0NzY0IDAuNTgzNjUwMiwtMC4xNTgzMjA0IDAuMjk4Nzg5OCwtMC4yMDU5NTYgLTAuMDA2LC0wLjQ2MDIwOCAwLjM1NTkwOTksLTAuNDg5MTkgMC4wMjI0OTksLTAuMDAxOCAwLjA0MjQsLTAuMDAyMyAwLjA2MDQsLTAuMDAxOCB6IG0gMi4zMzU5NjA1LDAuMzYyNzk0IGMgMC40ODMzNSwwLjAxMzU4IDAuMDE0NiwwLjQ2NzIxODQgMC40NTU5NiwwLjY2NDc2NjQgMC40NDE0NCwwLjE5NzU0ODIgMC40NjcxNCwtMC40NTQxMDMgMC43OTkzNywtMC4xMDI2NjkgMC4zMzIyMSwwLjM1MTQzMjIgLTAuMzE5OTcsMC4zNDA2NDAyIC0wLjE0NzUzLDAuNzkyNDU1MiAwLjE3MjQzLDAuNDUxODEzIDAuNjUxNjMsMC4wMDkyIDAuNjM4MDIsMC40OTI2NCAtMC4wMTM3LDAuNDgzNDExIC0wLjQ2NzIzLDAuMDE0NTYgLTAuNjY0NzcsMC40NTU5NzcgLTAuMTk3NTUsMC40NDE0MTIgMC40NTQxLDAuNDY3MTQzIDAuMTAyNjYsMC43OTkzNTcgLTAuMzUxNDEsMC4zMzIyMTIgLTAuMzQwMjEsLTAuMzE5OTc0IC0wLjc5MjAyLC0wLjE0NzUzNCAtMC40NTE4MywwLjE3MjQzNyAtMC4wMDksMC42NTE2MSAtMC40OTI2NSwwLjYzODAxOSAtMC40ODMzOSwtMC4wMTM1OCAtMC4wMTQ2LC0wLjQ2NzIxNiAtMC40NTU5NiwtMC42NjQ3NjQgLTAuNDQxNDEwNSwtMC4xOTc1NTEgLTAuNDY3NTgwNSwwLjQ1NDEwMiAtMC43OTk3OTA5LDAuMTAyNjY5IC0wLjMzMjIwOTcsLTAuMzUxNDMxIDAuMzE5OTgwNCwtMC4zNDAyMDkgMC4xNDc1NCwtMC43OTIwMjUgLTAuMTcyNDUsLTAuNDUxODE1IC0wLjY1MTYyOTYsLTAuMDA5MiAtMC42MzgwMjk1LC0wLjQ5MjY0MiAwLjAxMzY5OSwtMC40ODM0MDggMC40NjcyMDk1LC0wLjAxNDk5IDAuNjY0Nzc5NSwtMC40NTY0MDUgMC4xOTc1MjA0LC0wLjQ0MTQxNCAtMC40NTQxMSwtMC40NjcxNDMgLTAuMTAyNjksLTAuNzk5MzU3MiAwLjM1MTQ1MDUsLTAuMzMyMjE0IDAuMzQwNjUwNSwwLjMxOTk3MTIgMC43OTI0NjA5LDAuMTQ3NTM0IDAuNDUxODQsLTAuMTcyNDQgMC4wMDksLTAuNjUxNjExNCAwLjQ5MjY1LC0wLjYzODAyMTQgeiBNIDguNTg4ODkwMyw5LjUxNzIwMjggYyAtMC4yOTM2NDk5LDllLTUgLTAuNTMxNjA5OCwwLjIzODI0OSAtMC41MzE0NDk4LDAuNTMxODk4MiA3Ljk5ZS01LDAuMjkzNDgxIDAuMjM3OTcwMSwwLjUzMTM3NyAwLjUzMTQ0OTgsMC41MzE0NjcgMC4yOTM2NjAyLDEuNTllLTQgMC41MzE4MjAyLC0wLjIzNzgxIDAuNTMxOSwtMC41MzE0NjcgMS42MDFlLTQsLTAuMjkzODI1MiAtMC4yMzgwNjk5LC0wLjUzMjA1NzIgLTAuNTMxOSwtMC41MzE4OTgyIHogbSAyLjI2NDM2MDcsMC40ODA1NjM0IGMgLTAuNTg2ODksLTEuOTZlLTQgLTEuMDYyNzEwOSwwLjQ3NTYxNDggLTEuMDYyNTIwOSwxLjA2MjUwMjggNWUtNSwwLjU4NjcxOSAwLjQ3NTgwMDksMS4wNjIyNjcgMS4wNjI1MjA5LDEuMDYyMDcxIDAuNTg2NTQsLTUuOGUtNSAxLjA2MjAxLC0wLjQ3NTUzMSAxLjA2MjA2LC0xLjA2MjA3MSAxLjllLTQsLTAuNTg2NzA4IC0wLjQ3NTM1LC0xLjA2MjQ0NDggLTEuMDYyMDYsLTEuMDYyNTAyOCB6IiBzdHlsZT0ib3BhY2l0eToxO2ZpbGw6I2ZmZmZmZjtmaWxsLW9wYWNpdHk6MTtzdHJva2U6I2VlZWVlZTtzdHJva2Utd2lkdGg6MDtzdHJva2UtbWl0ZXJsaW1pdDoxMDtzdHJva2UtZGFzaGFycmF5Om5vbmU7c3Ryb2tlLWRhc2hvZmZzZXQ6MTEuMjM2NDIzNDk7c3Ryb2tlLW9wYWNpdHk6MSIgaW5rc2NhcGU6Y29ubmVjdG9yLWN1cnZhdHVyZT0iMCIvPiYjeGE7ICA8L2c+JiN4YTs8L3N2Zz4=;strokeWidth=2;fontColor=#000000;" parent="1" vertex="1">
          <mxGeometry x="730" y="540" width="65" height="65" as="geometry" />
        </mxCell>
        <mxCell id="G5toYubQoZsCjo8l9rVy-25" value="" style="shape=image;verticalLabelPosition=bottom;verticalAlign=top;imageAspect=0;aspect=fixed;image=data:image/svg+xml,PHN2ZyB4bWxuczpkYz0iaHR0cDovL3B1cmwub3JnL2RjL2VsZW1lbnRzLzEuMS8iIHhtbG5zOmNjPSJodHRwOi8vY3JlYXRpdmVjb21tb25zLm9yZy9ucyMiIHhtbG5zOnJkZj0iaHR0cDovL3d3dy53My5vcmcvMTk5OS8wMi8yMi1yZGYtc3ludGF4LW5zIyIgeG1sbnM6c3ZnPSJodHRwOi8vd3d3LnczLm9yZy8yMDAwL3N2ZyIgeG1sbnM9Imh0dHA6Ly93d3cudzMub3JnLzIwMDAvc3ZnIiB4bWxuczpzb2RpcG9kaT0iaHR0cDovL3NvZGlwb2RpLnNvdXJjZWZvcmdlLm5ldC9EVEQvc29kaXBvZGktMC5kdGQiIHhtbG5zOmlua3NjYXBlPSJodHRwOi8vd3d3Lmlua3NjYXBlLm9yZy9uYW1lc3BhY2VzL2lua3NjYXBlIiB3aWR0aD0iMTguMDM1MzM0bW0iIGhlaWdodD0iMTcuNTAwMzc4bW0iIHZpZXdCb3g9IjAgMCAxOC4wMzUzMzQgMTcuNTAwMzc4IiB2ZXJzaW9uPSIxLjEiIGlkPSJzdmcxMzgyNiIgaW5rc2NhcGU6dmVyc2lvbj0iMC45MSByMTM3MjUiIHNvZGlwb2RpOmRvY25hbWU9Im5vZGUuc3ZnIj4mI3hhOyAgPGRlZnMgaWQ9ImRlZnMxMzgyMCIvPiYjeGE7ICA8c29kaXBvZGk6bmFtZWR2aWV3IGlkPSJiYXNlIiBwYWdlY29sb3I9IiNmZmZmZmYiIGJvcmRlcmNvbG9yPSIjNjY2NjY2IiBib3JkZXJvcGFjaXR5PSIxLjAiIGlua3NjYXBlOnBhZ2VvcGFjaXR5PSIwLjAiIGlua3NjYXBlOnBhZ2VzaGFkb3c9IjIiIGlua3NjYXBlOnpvb209IjgiIGlua3NjYXBlOmN4PSIxNi44NDc0OTYiIGlua3NjYXBlOmN5PSIzMy43NTIyMzkiIGlua3NjYXBlOmRvY3VtZW50LXVuaXRzPSJtbSIgaW5rc2NhcGU6Y3VycmVudC1sYXllcj0ibGF5ZXIxIiBzaG93Z3JpZD0iZmFsc2UiIGlua3NjYXBlOndpbmRvdy13aWR0aD0iMTQ0MCIgaW5rc2NhcGU6d2luZG93LWhlaWdodD0iNzc1IiBpbmtzY2FwZTp3aW5kb3cteD0iMCIgaW5rc2NhcGU6d2luZG93LXk9IjEiIGlua3NjYXBlOndpbmRvdy1tYXhpbWl6ZWQ9IjEiIGZpdC1tYXJnaW4tdG9wPSIwIiBmaXQtbWFyZ2luLWxlZnQ9IjAiIGZpdC1tYXJnaW4tcmlnaHQ9IjAiIGZpdC1tYXJnaW4tYm90dG9tPSIwIi8+JiN4YTsgICYjeGE7ICA8ZyBpbmtzY2FwZTpsYWJlbD0iQ2FscXVlIDEiIGlua3NjYXBlOmdyb3VwbW9kZT0ibGF5ZXIiIGlkPSJsYXllcjEiIHRyYW5zZm9ybT0idHJhbnNsYXRlKC0wLjk5MjYyNjM4LC0xLjE3NDE4MSkiPiYjeGE7ICAgIDxnIGlkPSJnNzAiIHRyYW5zZm9ybT0ibWF0cml4KDEuMDE0ODg4NywwLDAsMS4wMTQ4ODg3LDE2LjkwMjE0NiwtMi42OTg3MjYpIj4mI3hhOyAgICAgIDxwYXRoIGlua3NjYXBlOmV4cG9ydC15ZHBpPSIyNTAuNTUiIGlua3NjYXBlOmV4cG9ydC14ZHBpPSIyNTAuNTUiIGlua3NjYXBlOmV4cG9ydC1maWxlbmFtZT0ibmV3LnBuZyIgaW5rc2NhcGU6Y29ubmVjdG9yLWN1cnZhdHVyZT0iMCIgaWQ9InBhdGgzMDU1IiBkPSJtIC02Ljg0OTIwMTUsNC4yNzI0NjY4IGEgMS4xMTkxMjU1LDEuMTA5OTY3MSAwIDAgMCAtMC40Mjg4ODE4LDAuMTA4NTMwMyBsIC01Ljg1MjQwMzcsMi43OTYzMzk0IGEgMS4xMTkxMjU1LDEuMTA5OTY3MSAwIDAgMCAtMC42MDU1MjQsMC43NTI5NzU5IGwgLTEuNDQzODI4LDYuMjgxMjg0NiBhIDEuMTE5MTI1NSwxLjEwOTk2NzEgMCAwIDAgMC4xNTE5NDMsMC44NTEwMjggMS4xMTkxMjU1LDEuMTA5OTY3MSAwIDAgMCAwLjA2MzYyLDAuMDg4MzIgbCA0LjA1MDgsNS4wMzY1NTUgYSAxLjExOTEyNTUsMS4xMDk5NjcxIDAgMCAwIDAuODc0OTc5LDAuNDE3NjU0IGwgNi40OTYxMDExLC0wLjAwMTUgYSAxLjExOTEyNTUsMS4xMDk5NjcxIDAgMCAwIDAuODc0OTc4OCwtMC40MTY5MDYgTCAxLjM4MTg4NzIsMTUuMTQ5NDUzIEEgMS4xMTkxMjU1LDEuMTA5OTY3MSAwIDAgMCAxLjU5ODE5ODYsMTQuMjEwMTA0IEwgMC4xNTIxMjY1Nyw3LjkyODgxNTQgQSAxLjExOTEyNTUsMS4xMDk5NjcxIDAgMCAwIC0wLjQ1MzM5Nzk0LDcuMTc1ODM5NiBMIC02LjMwNjU0OTYsNC4zODA5OTcxIEEgMS4xMTkxMjU1LDEuMTA5OTY3MSAwIDAgMCAtNi44NDkyMDE1LDQuMjcyNDY2OCBaIiBzdHlsZT0iZmlsbDojMzI2Y2U1O2ZpbGwtb3BhY2l0eToxO3N0cm9rZTpub25lO3N0cm9rZS13aWR0aDowO3N0cm9rZS1taXRlcmxpbWl0OjQ7c3Ryb2tlLWRhc2hhcnJheTpub25lO3N0cm9rZS1vcGFjaXR5OjEiLz4mI3hhOyAgICAgIDxwYXRoIGlkPSJwYXRoMzA1NC0yLTkiIGQ9Ik0gLTYuODUyMzQzNSwzLjgxNzYzNzIgQSAxLjE4MTQzMDQsMS4xNzE3NjIgMCAwIDAgLTcuMzA0NDI4NCwzLjkzMjkwNCBsIC02LjE3ODc0MjYsMi45NTEyNzU4IGEgMS4xODE0MzA0LDEuMTcxNzYyIDAgMCAwIC0wLjYzOTIwNiwwLjc5NDg5MSBsIC0xLjUyMzkxNSw2LjYzMDgyODIgYSAxLjE4MTQzMDQsMS4xNzE3NjIgMCAwIDAgMC4xNjAxNzUsMC44OTg5MyAxLjE4MTQzMDQsMS4xNzE3NjIgMCAwIDAgMC4wNjczNiwwLjA5MjgxIGwgNC4yNzYwOTQsNS4zMTcyMzYgYSAxLjE4MTQzMDQsMS4xNzE3NjIgMCAwIDAgMC45MjM2MywwLjQ0MDg1OCBsIDYuODU3NjE4OCwtMC4wMDE1IGEgMS4xODE0MzA0LDEuMTcxNzYyIDAgMCAwIDAuOTIzNjMwOCwtMC40NDAxMSBsIDQuMjc0NTk2NiwtNS4zMTc5ODUgYSAxLjE4MTQzMDQsMS4xNzE3NjIgMCAwIDAgMC4yMjgyODgsLTAuOTkwOTkzIEwgMC41Mzg5NDQzOSw3LjY3NzU3MzggQSAxLjE4MTQzMDQsMS4xNzE3NjIgMCAwIDAgLTAuMTAwMjYxMDEsNi44ODM0MzEzIEwgLTYuMjc5MDAzNywzLjkzMjE1NTUgQSAxLjE4MTQzMDQsMS4xNzE3NjIgMCAwIDAgLTYuODUyMzQzNSwzLjgxNzYzNzIgWiBtIDAuMDAyOTksMC40NTUwNzg5IGEgMS4xMTkxMjU1LDEuMTA5OTY3MSAwIDAgMSAwLjU0MjY1MTcsMC4xMDg1MzAzIGwgNS44NTMxNTE2OSwyLjc5NDg0MjUgQSAxLjExOTEyNTUsMS4xMDk5NjcxIDAgMCAxIDAuMTUxOTc4MTEsNy45MjkwNjQ4IEwgMS41OTgwNTEsMTQuMjEwMzUgYSAxLjExOTEyNTUsMS4xMDk5NjcxIDAgMCAxIC0wLjIxNjMxMjMsMC45MzkzNDggbCAtNC4wNDkzMDMyLDUuMDM3MzA0IGEgMS4xMTkxMjU1LDEuMTA5OTY3MSAwIDAgMSAtMC44NzQ5Nzg5LDAuNDE2OTA2IGwgLTYuNDk2MTAwNiwwLjAwMTUgYSAxLjExOTEyNTUsMS4xMDk5NjcxIDAgMCAxIC0wLjg3NDk3OSwtMC40MTc2NTIgbCAtNC4wNTA4LC01LjAzNjU1NCBhIDEuMTE5MTI1NSwxLjEwOTk2NzEgMCAwIDEgLTAuMDYzNjIsLTAuMDg4MzIgMS4xMTkxMjU1LDEuMTA5OTY3MSAwIDAgMSAtMC4xNTE5NDIsLTAuODUxMDI4IGwgMS40NDM4MjcsLTYuMjgxMjg1MyBhIDEuMTE5MTI1NSwxLjEwOTk2NzEgMCAwIDEgMC42MDU1MjQsLTAuNzUyOTc1OCBsIDUuODUyNDAzNiwtMi43OTYzMzk1IGEgMS4xMTkxMjU1LDEuMTA5OTY3MSAwIDAgMSAwLjQyODg4MTksLTAuMTA4NTMwMyB6IiBzdHlsZT0iY29sb3I6IzAwMDAwMDtmb250LXN0eWxlOm5vcm1hbDtmb250LXZhcmlhbnQ6bm9ybWFsO2ZvbnQtd2VpZ2h0Om5vcm1hbDtmb250LXN0cmV0Y2g6bm9ybWFsO2ZvbnQtc2l6ZTptZWRpdW07bGluZS1oZWlnaHQ6bm9ybWFsO2ZvbnQtZmFtaWx5OlNhbnM7LWlua3NjYXBlLWZvbnQtc3BlY2lmaWNhdGlvbjpTYW5zO3RleHQtaW5kZW50OjA7dGV4dC1hbGlnbjpzdGFydDt0ZXh0LWRlY29yYXRpb246bm9uZTt0ZXh0LWRlY29yYXRpb24tbGluZTpub25lO2xldHRlci1zcGFjaW5nOm5vcm1hbDt3b3JkLXNwYWNpbmc6bm9ybWFsO3RleHQtdHJhbnNmb3JtOm5vbmU7d3JpdGluZy1tb2RlOmxyLXRiO2RpcmVjdGlvbjpsdHI7YmFzZWxpbmUtc2hpZnQ6YmFzZWxpbmU7dGV4dC1hbmNob3I6c3RhcnQ7ZGlzcGxheTppbmxpbmU7b3ZlcmZsb3c6dmlzaWJsZTt2aXNpYmlsaXR5OnZpc2libGU7ZmlsbDojZmZmZmZmO2ZpbGwtb3BhY2l0eToxO2ZpbGwtcnVsZTpub256ZXJvO3N0cm9rZTpub25lO3N0cm9rZS13aWR0aDowO3N0cm9rZS1taXRlcmxpbWl0OjQ7c3Ryb2tlLWRhc2hhcnJheTpub25lO21hcmtlcjpub25lO2VuYWJsZS1iYWNrZ3JvdW5kOmFjY3VtdWxhdGUiIGlua3NjYXBlOmNvbm5lY3Rvci1jdXJ2YXR1cmU9IjAiLz4mI3hhOyAgICA8L2c+JiN4YTsgICAgPHRleHQgaWQ9InRleHQyMDY2IiB5PSIxNi44MTE3NzUiIHg9IjkuOTc2NTMxIiBzdHlsZT0iZm9udC1zdHlsZTpub3JtYWw7Zm9udC13ZWlnaHQ6bm9ybWFsO2ZvbnQtc2l6ZToxMC41ODMzMzMwMnB4O2xpbmUtaGVpZ2h0OjYuNjE0NTgzNDlweDtmb250LWZhbWlseTpTYW5zO2xldHRlci1zcGFjaW5nOjBweDt3b3JkLXNwYWNpbmc6MHB4O2ZpbGw6I2ZmZmZmZjtmaWxsLW9wYWNpdHk6MTtzdHJva2U6bm9uZTtzdHJva2Utd2lkdGg6MC4yNjQ1ODMzMnB4O3N0cm9rZS1saW5lY2FwOmJ1dHQ7c3Ryb2tlLWxpbmVqb2luOm1pdGVyO3N0cm9rZS1vcGFjaXR5OjEiIHhtbDpzcGFjZT0icHJlc2VydmUiPjx0c3BhbiBzdHlsZT0iZm9udC1zdHlsZTpub3JtYWw7Zm9udC12YXJpYW50Om5vcm1hbDtmb250LXdlaWdodDpub3JtYWw7Zm9udC1zdHJldGNoOm5vcm1hbDtmb250LXNpemU6Mi44MjIyMjIyM3B4O2ZvbnQtZmFtaWx5OkFyaWFsOy1pbmtzY2FwZS1mb250LXNwZWNpZmljYXRpb246J0FyaWFsLCBOb3JtYWwnO3RleHQtYWxpZ246Y2VudGVyO3dyaXRpbmctbW9kZTpsci10Yjt0ZXh0LWFuY2hvcjptaWRkbGU7ZmlsbDojZmZmZmZmO2ZpbGwtb3BhY2l0eToxO3N0cm9rZS13aWR0aDowLjI2NDU4MzMycHgiIHk9IjE2LjgxMTc3NSIgeD0iOS45NzY1MzEiIGlkPSJ0c3BhbjIwNjQiIHNvZGlwb2RpOnJvbGU9ImxpbmUiPm5vZGU8L3RzcGFuPjwvdGV4dD4mI3hhOyAgICA8cGF0aCBzb2RpcG9kaTpub2RldHlwZXM9ImNjY2NjY2NjY2NjY2NjY2NjY2NjY2NjY2NjY2NjY2NjY2NjY2NjY2NjY2NjY2NjY2NjY2NjY2NjY2NjY2NjY2NjY2NjY2NjY2NjY2NjY2NjY2Njc2NjY2NjY2NjY2NjY2NjY2MiIGlkPSJwYXRoMTk5NCIgZD0ibSA5Ljk5MjE4MDMsNC4wOTQyNTQ0IGMgLTAuMTM4MzI5OCwtMC4wMDQ0IC0zLjk5NTA5OTgsMS44OTE4NzMxIC00LjA0NTUyOTksMS45ODkxMTkxIC0wLjEyMTE3LDAuMjMzNjgyIC0wLjk5ODksNC4yODE4Mjc1IC0wLjk0NzMxLDQuMzY5MDc0NSAwLjAzLDAuMDUwNjUgMC42NjIxOSwwLjg1MTg2MSAxLjQwNDU4LDEuNzgwMzI3IGwgMS4zNDk4MjAxLDEuNjg4MDE0IDIuMjIxMTkwMSw5LjMxZS00IDIuMjIxNjQwNCw5LjMxZS00IDEuNDEzMjEsLTEuNzY1NzMxIDEuNDEzNjUsLTEuNzY1MjI4IC0wLjQ5NDc5LC0yLjE2ODU3NjQgYyAtMC4yNzIyLC0xLjE5Mjc2NjEgLTAuNTE1NjYsLTIuMTg4NjE0MSAtMC41NDA1MywtMi4yMTI2MDQxIC0wLjA2OTUsLTAuMDY2ODggLTMuOTIwOTYsLTEuOTEzNzk0MSAtMy45OTU5MzA3LC0xLjkxNjIxNTEgeiBtIDAuMTk2MTQwNywwLjk0Nzc1MyAwLjkwODkzLDAuMjYzNTc3MSAtMC45MDg5MywwLjI2MzU3NiAtMC45MDg5MjA5LC0wLjI2MzU3NiB6IG0gLTAuOTA4OTIwOSwwLjM2NDUyIDAuODUxMTIwOSwwLjI1MzIyNjEgLTAuMDA0LDEuMTgzMjg5IC0wLjg0NjgxMDksLTAuNDY5MzQ3IHogbSAxLjgxNzg1MDksMCAwLDAuOTY3MTY4MSAtMC44NDY3OSwwLjQ2OTM0NyAtMC4wMDQsLTEuMTgzMjg5IHogTSA4Ljg5OTc3MDUsNy4wMjEyMDU1IDkuODA4NzEwMSw3LjI4NDc4MTIgOC44OTk3NzA1LDcuNTQ4MzU4MiA3Ljk5MDg1MDQsNy4yODQ3ODEyIFogbSAyLjIwODcwMDUsMCAwLjkwODk0LDAuMjYzNTc1NyAtMC45MDg5NCwwLjI2MzU3NyAtMC45MDg5MywtMC4yNjM1NzcgeiBtIC0zLjExNzYyMDYsMC4zNjQ1MTk3IDAuODUxMTIwMiwwLjI1Mjc5MiAtMC4wMDQsMS4xODMyOTA4IC0wLjg0NjgxOTksLTAuNDY4OTE1IHogbSAxLjgxNzg1OTcsMCAwLDAuOTY3MTY3OCAtMC44NDY4MDk4LDAuNDY4OTE1IC0wLjAwNCwtMS4xODMyOTA4IHogbSAwLjM5MDgzMDksMCAwLjg1MTEzLDAuMjUyNzkyIC0wLjAwNCwxLjE4MzI5MDggLTAuODQ2ODIsLTAuNDY4OTE1IHogbSAxLjgxNzg3LDAgMCwwLjk2NzE2NzggLTAuODQ2ODIsMC40Njg5MTUgLTAuMDA0LC0xLjE4MzI5MDggeiBNIDguNTY3NzUwNSw4LjkwMDc1MzQgYyAwLjI3MDYyOTksMC4wMDk2IDAuMDYxMSwwLjI4MTkwOSAwLjM2ODQxMDEsMC40Mjc5MzUgMC4zMjc3NDk1LDAuMTU1NzY0NCAwLjM5NTM5OTUsLTAuMjM1MzU0IDAuNjAxMzM5NSwwLjA2MzQxIDAuMjA1OTksMC4yOTg3NjY0IC0wLjE4MzM5LDAuMjIzMjM5NCAtMC4xNTQ0MywwLjU4NDk1NjggMC4wMjksMC4zNjE3MTg4IDAuNDAxNjUsMC4yMjQ4NTg4IDAuMjQ1ODksMC41NTI2MDY4IC0wLjE1NTc1LDAuMzI3NzQ2IC0wLjI4NTMyLC0wLjA0NzY0IC0wLjU4NDA4OTUsMC4xNTgzMTcgLTAuMjk4NzQwMSwwLjIwNTk1NyAwLjAwNiwwLjQ2MDIwOCAtMC4zNTU0NiwwLjQ4OTE5MiAtMC4zNjE3NDAxLDAuMDI4OTggLTAuMTAxNTAwMSwtMC4yNzA0NDcgLTAuNDI5MjQsLTAuNDI2MjA4IC0wLjMyNzc1LC0wLjE1NTc2NSAtMC4zOTUzODAxLDAuMjM0OTIxIC0wLjYwMTM0MDIsLTAuMDYzODUgLTAuMjA1OTU5OSwtMC4yOTg3NjcgMC4xODM4Mjk5LC0wLjIyMjgxIDAuMTU0ODUsLTAuNTg0NTI4IC0wLjAyOSwtMC4zNjE3MTgyIC0wLjQwMTY0OTksLTAuMjI0ODU5MiAtMC4yNDU4NywtMC41NTI2MDQyIDAuMTU1NzUwMSwtMC4zMjc3NDk0IDAuMjg0ODgwMSwwLjA0NzY0IDAuNTgzNjUwMiwtMC4xNTgzMjA0IDAuMjk4Nzg5OCwtMC4yMDU5NTYgLTAuMDA2LC0wLjQ2MDIwOCAwLjM1NTkwOTksLTAuNDg5MTkgMC4wMjI0OTksLTAuMDAxOCAwLjA0MjQsLTAuMDAyMyAwLjA2MDQsLTAuMDAxOCB6IG0gMi4zMzU5NjA1LDAuMzYyNzk0IGMgMC40ODMzNSwwLjAxMzU4IDAuMDE0NiwwLjQ2NzIxODQgMC40NTU5NiwwLjY2NDc2NjQgMC40NDE0NCwwLjE5NzU0ODIgMC40NjcxNCwtMC40NTQxMDMgMC43OTkzNywtMC4xMDI2NjkgMC4zMzIyMSwwLjM1MTQzMjIgLTAuMzE5OTcsMC4zNDA2NDAyIC0wLjE0NzUzLDAuNzkyNDU1MiAwLjE3MjQzLDAuNDUxODEzIDAuNjUxNjMsMC4wMDkyIDAuNjM4MDIsMC40OTI2NCAtMC4wMTM3LDAuNDgzNDExIC0wLjQ2NzIzLDAuMDE0NTYgLTAuNjY0NzcsMC40NTU5NzcgLTAuMTk3NTUsMC40NDE0MTIgMC40NTQxLDAuNDY3MTQzIDAuMTAyNjYsMC43OTkzNTcgLTAuMzUxNDEsMC4zMzIyMTIgLTAuMzQwMjEsLTAuMzE5OTc0IC0wLjc5MjAyLC0wLjE0NzUzNCAtMC40NTE4MywwLjE3MjQzNyAtMC4wMDksMC42NTE2MSAtMC40OTI2NSwwLjYzODAxOSAtMC40ODMzOSwtMC4wMTM1OCAtMC4wMTQ2LC0wLjQ2NzIxNiAtMC40NTU5NiwtMC42NjQ3NjQgLTAuNDQxNDEwNSwtMC4xOTc1NTEgLTAuNDY3NTgwNSwwLjQ1NDEwMiAtMC43OTk3OTA5LDAuMTAyNjY5IC0wLjMzMjIwOTcsLTAuMzUxNDMxIDAuMzE5OTgwNCwtMC4zNDAyMDkgMC4xNDc1NCwtMC43OTIwMjUgLTAuMTcyNDUsLTAuNDUxODE1IC0wLjY1MTYyOTYsLTAuMDA5MiAtMC42MzgwMjk1LC0wLjQ5MjY0MiAwLjAxMzY5OSwtMC40ODM0MDggMC40NjcyMDk1LC0wLjAxNDk5IDAuNjY0Nzc5NSwtMC40NTY0MDUgMC4xOTc1MjA0LC0wLjQ0MTQxNCAtMC40NTQxMSwtMC40NjcxNDMgLTAuMTAyNjksLTAuNzk5MzU3MiAwLjM1MTQ1MDUsLTAuMzMyMjE0IDAuMzQwNjUwNSwwLjMxOTk3MTIgMC43OTI0NjA5LDAuMTQ3NTM0IDAuNDUxODQsLTAuMTcyNDQgMC4wMDksLTAuNjUxNjExNCAwLjQ5MjY1LC0wLjYzODAyMTQgeiBNIDguNTg4ODkwMyw5LjUxNzIwMjggYyAtMC4yOTM2NDk5LDllLTUgLTAuNTMxNjA5OCwwLjIzODI0OSAtMC41MzE0NDk4LDAuNTMxODk4MiA3Ljk5ZS01LDAuMjkzNDgxIDAuMjM3OTcwMSwwLjUzMTM3NyAwLjUzMTQ0OTgsMC41MzE0NjcgMC4yOTM2NjAyLDEuNTllLTQgMC41MzE4MjAyLC0wLjIzNzgxIDAuNTMxOSwtMC41MzE0NjcgMS42MDFlLTQsLTAuMjkzODI1MiAtMC4yMzgwNjk5LC0wLjUzMjA1NzIgLTAuNTMxOSwtMC41MzE4OTgyIHogbSAyLjI2NDM2MDcsMC40ODA1NjM0IGMgLTAuNTg2ODksLTEuOTZlLTQgLTEuMDYyNzEwOSwwLjQ3NTYxNDggLTEuMDYyNTIwOSwxLjA2MjUwMjggNWUtNSwwLjU4NjcxOSAwLjQ3NTgwMDksMS4wNjIyNjcgMS4wNjI1MjA5LDEuMDYyMDcxIDAuNTg2NTQsLTUuOGUtNSAxLjA2MjAxLC0wLjQ3NTUzMSAxLjA2MjA2LC0xLjA2MjA3MSAxLjllLTQsLTAuNTg2NzA4IC0wLjQ3NTM1LC0xLjA2MjQ0NDggLTEuMDYyMDYsLTEuMDYyNTAyOCB6IiBzdHlsZT0ib3BhY2l0eToxO2ZpbGw6I2ZmZmZmZjtmaWxsLW9wYWNpdHk6MTtzdHJva2U6I2VlZWVlZTtzdHJva2Utd2lkdGg6MDtzdHJva2UtbWl0ZXJsaW1pdDoxMDtzdHJva2UtZGFzaGFycmF5Om5vbmU7c3Ryb2tlLWRhc2hvZmZzZXQ6MTEuMjM2NDIzNDk7c3Ryb2tlLW9wYWNpdHk6MSIgaW5rc2NhcGU6Y29ubmVjdG9yLWN1cnZhdHVyZT0iMCIvPiYjeGE7ICA8L2c+JiN4YTs8L3N2Zz4=;strokeWidth=2;fontColor=#000000;" parent="1" vertex="1">
          <mxGeometry x="817" y="540" width="65" height="65" as="geometry" />
        </mxCell>
        <mxCell id="G5toYubQoZsCjo8l9rVy-26" value="" style="shape=image;verticalLabelPosition=bottom;verticalAlign=top;imageAspect=0;aspect=fixed;image=data:image/svg+xml,PHN2ZyB4bWxuczpkYz0iaHR0cDovL3B1cmwub3JnL2RjL2VsZW1lbnRzLzEuMS8iIHhtbG5zOmNjPSJodHRwOi8vY3JlYXRpdmVjb21tb25zLm9yZy9ucyMiIHhtbG5zOnJkZj0iaHR0cDovL3d3dy53My5vcmcvMTk5OS8wMi8yMi1yZGYtc3ludGF4LW5zIyIgeG1sbnM6c3ZnPSJodHRwOi8vd3d3LnczLm9yZy8yMDAwL3N2ZyIgeG1sbnM9Imh0dHA6Ly93d3cudzMub3JnLzIwMDAvc3ZnIiB4bWxuczpzb2RpcG9kaT0iaHR0cDovL3NvZGlwb2RpLnNvdXJjZWZvcmdlLm5ldC9EVEQvc29kaXBvZGktMC5kdGQiIHhtbG5zOmlua3NjYXBlPSJodHRwOi8vd3d3Lmlua3NjYXBlLm9yZy9uYW1lc3BhY2VzL2lua3NjYXBlIiB3aWR0aD0iMTguMDM1MzM0bW0iIGhlaWdodD0iMTcuNTAwMzc4bW0iIHZpZXdCb3g9IjAgMCAxOC4wMzUzMzQgMTcuNTAwMzc4IiB2ZXJzaW9uPSIxLjEiIGlkPSJzdmcxMzgyNiIgaW5rc2NhcGU6dmVyc2lvbj0iMC45MSByMTM3MjUiIHNvZGlwb2RpOmRvY25hbWU9Im5vZGUuc3ZnIj4mI3hhOyAgPGRlZnMgaWQ9ImRlZnMxMzgyMCIvPiYjeGE7ICA8c29kaXBvZGk6bmFtZWR2aWV3IGlkPSJiYXNlIiBwYWdlY29sb3I9IiNmZmZmZmYiIGJvcmRlcmNvbG9yPSIjNjY2NjY2IiBib3JkZXJvcGFjaXR5PSIxLjAiIGlua3NjYXBlOnBhZ2VvcGFjaXR5PSIwLjAiIGlua3NjYXBlOnBhZ2VzaGFkb3c9IjIiIGlua3NjYXBlOnpvb209IjgiIGlua3NjYXBlOmN4PSIxNi44NDc0OTYiIGlua3NjYXBlOmN5PSIzMy43NTIyMzkiIGlua3NjYXBlOmRvY3VtZW50LXVuaXRzPSJtbSIgaW5rc2NhcGU6Y3VycmVudC1sYXllcj0ibGF5ZXIxIiBzaG93Z3JpZD0iZmFsc2UiIGlua3NjYXBlOndpbmRvdy13aWR0aD0iMTQ0MCIgaW5rc2NhcGU6d2luZG93LWhlaWdodD0iNzc1IiBpbmtzY2FwZTp3aW5kb3cteD0iMCIgaW5rc2NhcGU6d2luZG93LXk9IjEiIGlua3NjYXBlOndpbmRvdy1tYXhpbWl6ZWQ9IjEiIGZpdC1tYXJnaW4tdG9wPSIwIiBmaXQtbWFyZ2luLWxlZnQ9IjAiIGZpdC1tYXJnaW4tcmlnaHQ9IjAiIGZpdC1tYXJnaW4tYm90dG9tPSIwIi8+JiN4YTsgICYjeGE7ICA8ZyBpbmtzY2FwZTpsYWJlbD0iQ2FscXVlIDEiIGlua3NjYXBlOmdyb3VwbW9kZT0ibGF5ZXIiIGlkPSJsYXllcjEiIHRyYW5zZm9ybT0idHJhbnNsYXRlKC0wLjk5MjYyNjM4LC0xLjE3NDE4MSkiPiYjeGE7ICAgIDxnIGlkPSJnNzAiIHRyYW5zZm9ybT0ibWF0cml4KDEuMDE0ODg4NywwLDAsMS4wMTQ4ODg3LDE2LjkwMjE0NiwtMi42OTg3MjYpIj4mI3hhOyAgICAgIDxwYXRoIGlua3NjYXBlOmV4cG9ydC15ZHBpPSIyNTAuNTUiIGlua3NjYXBlOmV4cG9ydC14ZHBpPSIyNTAuNTUiIGlua3NjYXBlOmV4cG9ydC1maWxlbmFtZT0ibmV3LnBuZyIgaW5rc2NhcGU6Y29ubmVjdG9yLWN1cnZhdHVyZT0iMCIgaWQ9InBhdGgzMDU1IiBkPSJtIC02Ljg0OTIwMTUsNC4yNzI0NjY4IGEgMS4xMTkxMjU1LDEuMTA5OTY3MSAwIDAgMCAtMC40Mjg4ODE4LDAuMTA4NTMwMyBsIC01Ljg1MjQwMzcsMi43OTYzMzk0IGEgMS4xMTkxMjU1LDEuMTA5OTY3MSAwIDAgMCAtMC42MDU1MjQsMC43NTI5NzU5IGwgLTEuNDQzODI4LDYuMjgxMjg0NiBhIDEuMTE5MTI1NSwxLjEwOTk2NzEgMCAwIDAgMC4xNTE5NDMsMC44NTEwMjggMS4xMTkxMjU1LDEuMTA5OTY3MSAwIDAgMCAwLjA2MzYyLDAuMDg4MzIgbCA0LjA1MDgsNS4wMzY1NTUgYSAxLjExOTEyNTUsMS4xMDk5NjcxIDAgMCAwIDAuODc0OTc5LDAuNDE3NjU0IGwgNi40OTYxMDExLC0wLjAwMTUgYSAxLjExOTEyNTUsMS4xMDk5NjcxIDAgMCAwIDAuODc0OTc4OCwtMC40MTY5MDYgTCAxLjM4MTg4NzIsMTUuMTQ5NDUzIEEgMS4xMTkxMjU1LDEuMTA5OTY3MSAwIDAgMCAxLjU5ODE5ODYsMTQuMjEwMTA0IEwgMC4xNTIxMjY1Nyw3LjkyODgxNTQgQSAxLjExOTEyNTUsMS4xMDk5NjcxIDAgMCAwIC0wLjQ1MzM5Nzk0LDcuMTc1ODM5NiBMIC02LjMwNjU0OTYsNC4zODA5OTcxIEEgMS4xMTkxMjU1LDEuMTA5OTY3MSAwIDAgMCAtNi44NDkyMDE1LDQuMjcyNDY2OCBaIiBzdHlsZT0iZmlsbDojMzI2Y2U1O2ZpbGwtb3BhY2l0eToxO3N0cm9rZTpub25lO3N0cm9rZS13aWR0aDowO3N0cm9rZS1taXRlcmxpbWl0OjQ7c3Ryb2tlLWRhc2hhcnJheTpub25lO3N0cm9rZS1vcGFjaXR5OjEiLz4mI3hhOyAgICAgIDxwYXRoIGlkPSJwYXRoMzA1NC0yLTkiIGQ9Ik0gLTYuODUyMzQzNSwzLjgxNzYzNzIgQSAxLjE4MTQzMDQsMS4xNzE3NjIgMCAwIDAgLTcuMzA0NDI4NCwzLjkzMjkwNCBsIC02LjE3ODc0MjYsMi45NTEyNzU4IGEgMS4xODE0MzA0LDEuMTcxNzYyIDAgMCAwIC0wLjYzOTIwNiwwLjc5NDg5MSBsIC0xLjUyMzkxNSw2LjYzMDgyODIgYSAxLjE4MTQzMDQsMS4xNzE3NjIgMCAwIDAgMC4xNjAxNzUsMC44OTg5MyAxLjE4MTQzMDQsMS4xNzE3NjIgMCAwIDAgMC4wNjczNiwwLjA5MjgxIGwgNC4yNzYwOTQsNS4zMTcyMzYgYSAxLjE4MTQzMDQsMS4xNzE3NjIgMCAwIDAgMC45MjM2MywwLjQ0MDg1OCBsIDYuODU3NjE4OCwtMC4wMDE1IGEgMS4xODE0MzA0LDEuMTcxNzYyIDAgMCAwIDAuOTIzNjMwOCwtMC40NDAxMSBsIDQuMjc0NTk2NiwtNS4zMTc5ODUgYSAxLjE4MTQzMDQsMS4xNzE3NjIgMCAwIDAgMC4yMjgyODgsLTAuOTkwOTkzIEwgMC41Mzg5NDQzOSw3LjY3NzU3MzggQSAxLjE4MTQzMDQsMS4xNzE3NjIgMCAwIDAgLTAuMTAwMjYxMDEsNi44ODM0MzEzIEwgLTYuMjc5MDAzNywzLjkzMjE1NTUgQSAxLjE4MTQzMDQsMS4xNzE3NjIgMCAwIDAgLTYuODUyMzQzNSwzLjgxNzYzNzIgWiBtIDAuMDAyOTksMC40NTUwNzg5IGEgMS4xMTkxMjU1LDEuMTA5OTY3MSAwIDAgMSAwLjU0MjY1MTcsMC4xMDg1MzAzIGwgNS44NTMxNTE2OSwyLjc5NDg0MjUgQSAxLjExOTEyNTUsMS4xMDk5NjcxIDAgMCAxIDAuMTUxOTc4MTEsNy45MjkwNjQ4IEwgMS41OTgwNTEsMTQuMjEwMzUgYSAxLjExOTEyNTUsMS4xMDk5NjcxIDAgMCAxIC0wLjIxNjMxMjMsMC45MzkzNDggbCAtNC4wNDkzMDMyLDUuMDM3MzA0IGEgMS4xMTkxMjU1LDEuMTA5OTY3MSAwIDAgMSAtMC44NzQ5Nzg5LDAuNDE2OTA2IGwgLTYuNDk2MTAwNiwwLjAwMTUgYSAxLjExOTEyNTUsMS4xMDk5NjcxIDAgMCAxIC0wLjg3NDk3OSwtMC40MTc2NTIgbCAtNC4wNTA4LC01LjAzNjU1NCBhIDEuMTE5MTI1NSwxLjEwOTk2NzEgMCAwIDEgLTAuMDYzNjIsLTAuMDg4MzIgMS4xMTkxMjU1LDEuMTA5OTY3MSAwIDAgMSAtMC4xNTE5NDIsLTAuODUxMDI4IGwgMS40NDM4MjcsLTYuMjgxMjg1MyBhIDEuMTE5MTI1NSwxLjEwOTk2NzEgMCAwIDEgMC42MDU1MjQsLTAuNzUyOTc1OCBsIDUuODUyNDAzNiwtMi43OTYzMzk1IGEgMS4xMTkxMjU1LDEuMTA5OTY3MSAwIDAgMSAwLjQyODg4MTksLTAuMTA4NTMwMyB6IiBzdHlsZT0iY29sb3I6IzAwMDAwMDtmb250LXN0eWxlOm5vcm1hbDtmb250LXZhcmlhbnQ6bm9ybWFsO2ZvbnQtd2VpZ2h0Om5vcm1hbDtmb250LXN0cmV0Y2g6bm9ybWFsO2ZvbnQtc2l6ZTptZWRpdW07bGluZS1oZWlnaHQ6bm9ybWFsO2ZvbnQtZmFtaWx5OlNhbnM7LWlua3NjYXBlLWZvbnQtc3BlY2lmaWNhdGlvbjpTYW5zO3RleHQtaW5kZW50OjA7dGV4dC1hbGlnbjpzdGFydDt0ZXh0LWRlY29yYXRpb246bm9uZTt0ZXh0LWRlY29yYXRpb24tbGluZTpub25lO2xldHRlci1zcGFjaW5nOm5vcm1hbDt3b3JkLXNwYWNpbmc6bm9ybWFsO3RleHQtdHJhbnNmb3JtOm5vbmU7d3JpdGluZy1tb2RlOmxyLXRiO2RpcmVjdGlvbjpsdHI7YmFzZWxpbmUtc2hpZnQ6YmFzZWxpbmU7dGV4dC1hbmNob3I6c3RhcnQ7ZGlzcGxheTppbmxpbmU7b3ZlcmZsb3c6dmlzaWJsZTt2aXNpYmlsaXR5OnZpc2libGU7ZmlsbDojZmZmZmZmO2ZpbGwtb3BhY2l0eToxO2ZpbGwtcnVsZTpub256ZXJvO3N0cm9rZTpub25lO3N0cm9rZS13aWR0aDowO3N0cm9rZS1taXRlcmxpbWl0OjQ7c3Ryb2tlLWRhc2hhcnJheTpub25lO21hcmtlcjpub25lO2VuYWJsZS1iYWNrZ3JvdW5kOmFjY3VtdWxhdGUiIGlua3NjYXBlOmNvbm5lY3Rvci1jdXJ2YXR1cmU9IjAiLz4mI3hhOyAgICA8L2c+JiN4YTsgICAgPHRleHQgaWQ9InRleHQyMDY2IiB5PSIxNi44MTE3NzUiIHg9IjkuOTc2NTMxIiBzdHlsZT0iZm9udC1zdHlsZTpub3JtYWw7Zm9udC13ZWlnaHQ6bm9ybWFsO2ZvbnQtc2l6ZToxMC41ODMzMzMwMnB4O2xpbmUtaGVpZ2h0OjYuNjE0NTgzNDlweDtmb250LWZhbWlseTpTYW5zO2xldHRlci1zcGFjaW5nOjBweDt3b3JkLXNwYWNpbmc6MHB4O2ZpbGw6I2ZmZmZmZjtmaWxsLW9wYWNpdHk6MTtzdHJva2U6bm9uZTtzdHJva2Utd2lkdGg6MC4yNjQ1ODMzMnB4O3N0cm9rZS1saW5lY2FwOmJ1dHQ7c3Ryb2tlLWxpbmVqb2luOm1pdGVyO3N0cm9rZS1vcGFjaXR5OjEiIHhtbDpzcGFjZT0icHJlc2VydmUiPjx0c3BhbiBzdHlsZT0iZm9udC1zdHlsZTpub3JtYWw7Zm9udC12YXJpYW50Om5vcm1hbDtmb250LXdlaWdodDpub3JtYWw7Zm9udC1zdHJldGNoOm5vcm1hbDtmb250LXNpemU6Mi44MjIyMjIyM3B4O2ZvbnQtZmFtaWx5OkFyaWFsOy1pbmtzY2FwZS1mb250LXNwZWNpZmljYXRpb246J0FyaWFsLCBOb3JtYWwnO3RleHQtYWxpZ246Y2VudGVyO3dyaXRpbmctbW9kZTpsci10Yjt0ZXh0LWFuY2hvcjptaWRkbGU7ZmlsbDojZmZmZmZmO2ZpbGwtb3BhY2l0eToxO3N0cm9rZS13aWR0aDowLjI2NDU4MzMycHgiIHk9IjE2LjgxMTc3NSIgeD0iOS45NzY1MzEiIGlkPSJ0c3BhbjIwNjQiIHNvZGlwb2RpOnJvbGU9ImxpbmUiPm5vZGU8L3RzcGFuPjwvdGV4dD4mI3hhOyAgICA8cGF0aCBzb2RpcG9kaTpub2RldHlwZXM9ImNjY2NjY2NjY2NjY2NjY2NjY2NjY2NjY2NjY2NjY2NjY2NjY2NjY2NjY2NjY2NjY2NjY2NjY2NjY2NjY2NjY2NjY2NjY2NjY2NjY2NjY2NjY2Njc2NjY2NjY2NjY2NjY2NjY2MiIGlkPSJwYXRoMTk5NCIgZD0ibSA5Ljk5MjE4MDMsNC4wOTQyNTQ0IGMgLTAuMTM4MzI5OCwtMC4wMDQ0IC0zLjk5NTA5OTgsMS44OTE4NzMxIC00LjA0NTUyOTksMS45ODkxMTkxIC0wLjEyMTE3LDAuMjMzNjgyIC0wLjk5ODksNC4yODE4Mjc1IC0wLjk0NzMxLDQuMzY5MDc0NSAwLjAzLDAuMDUwNjUgMC42NjIxOSwwLjg1MTg2MSAxLjQwNDU4LDEuNzgwMzI3IGwgMS4zNDk4MjAxLDEuNjg4MDE0IDIuMjIxMTkwMSw5LjMxZS00IDIuMjIxNjQwNCw5LjMxZS00IDEuNDEzMjEsLTEuNzY1NzMxIDEuNDEzNjUsLTEuNzY1MjI4IC0wLjQ5NDc5LC0yLjE2ODU3NjQgYyAtMC4yNzIyLC0xLjE5Mjc2NjEgLTAuNTE1NjYsLTIuMTg4NjE0MSAtMC41NDA1MywtMi4yMTI2MDQxIC0wLjA2OTUsLTAuMDY2ODggLTMuOTIwOTYsLTEuOTEzNzk0MSAtMy45OTU5MzA3LC0xLjkxNjIxNTEgeiBtIDAuMTk2MTQwNywwLjk0Nzc1MyAwLjkwODkzLDAuMjYzNTc3MSAtMC45MDg5MywwLjI2MzU3NiAtMC45MDg5MjA5LC0wLjI2MzU3NiB6IG0gLTAuOTA4OTIwOSwwLjM2NDUyIDAuODUxMTIwOSwwLjI1MzIyNjEgLTAuMDA0LDEuMTgzMjg5IC0wLjg0NjgxMDksLTAuNDY5MzQ3IHogbSAxLjgxNzg1MDksMCAwLDAuOTY3MTY4MSAtMC44NDY3OSwwLjQ2OTM0NyAtMC4wMDQsLTEuMTgzMjg5IHogTSA4Ljg5OTc3MDUsNy4wMjEyMDU1IDkuODA4NzEwMSw3LjI4NDc4MTIgOC44OTk3NzA1LDcuNTQ4MzU4MiA3Ljk5MDg1MDQsNy4yODQ3ODEyIFogbSAyLjIwODcwMDUsMCAwLjkwODk0LDAuMjYzNTc1NyAtMC45MDg5NCwwLjI2MzU3NyAtMC45MDg5MywtMC4yNjM1NzcgeiBtIC0zLjExNzYyMDYsMC4zNjQ1MTk3IDAuODUxMTIwMiwwLjI1Mjc5MiAtMC4wMDQsMS4xODMyOTA4IC0wLjg0NjgxOTksLTAuNDY4OTE1IHogbSAxLjgxNzg1OTcsMCAwLDAuOTY3MTY3OCAtMC44NDY4MDk4LDAuNDY4OTE1IC0wLjAwNCwtMS4xODMyOTA4IHogbSAwLjM5MDgzMDksMCAwLjg1MTEzLDAuMjUyNzkyIC0wLjAwNCwxLjE4MzI5MDggLTAuODQ2ODIsLTAuNDY4OTE1IHogbSAxLjgxNzg3LDAgMCwwLjk2NzE2NzggLTAuODQ2ODIsMC40Njg5MTUgLTAuMDA0LC0xLjE4MzI5MDggeiBNIDguNTY3NzUwNSw4LjkwMDc1MzQgYyAwLjI3MDYyOTksMC4wMDk2IDAuMDYxMSwwLjI4MTkwOSAwLjM2ODQxMDEsMC40Mjc5MzUgMC4zMjc3NDk1LDAuMTU1NzY0NCAwLjM5NTM5OTUsLTAuMjM1MzU0IDAuNjAxMzM5NSwwLjA2MzQxIDAuMjA1OTksMC4yOTg3NjY0IC0wLjE4MzM5LDAuMjIzMjM5NCAtMC4xNTQ0MywwLjU4NDk1NjggMC4wMjksMC4zNjE3MTg4IDAuNDAxNjUsMC4yMjQ4NTg4IDAuMjQ1ODksMC41NTI2MDY4IC0wLjE1NTc1LDAuMzI3NzQ2IC0wLjI4NTMyLC0wLjA0NzY0IC0wLjU4NDA4OTUsMC4xNTgzMTcgLTAuMjk4NzQwMSwwLjIwNTk1NyAwLjAwNiwwLjQ2MDIwOCAtMC4zNTU0NiwwLjQ4OTE5MiAtMC4zNjE3NDAxLDAuMDI4OTggLTAuMTAxNTAwMSwtMC4yNzA0NDcgLTAuNDI5MjQsLTAuNDI2MjA4IC0wLjMyNzc1LC0wLjE1NTc2NSAtMC4zOTUzODAxLDAuMjM0OTIxIC0wLjYwMTM0MDIsLTAuMDYzODUgLTAuMjA1OTU5OSwtMC4yOTg3NjcgMC4xODM4Mjk5LC0wLjIyMjgxIDAuMTU0ODUsLTAuNTg0NTI4IC0wLjAyOSwtMC4zNjE3MTgyIC0wLjQwMTY0OTksLTAuMjI0ODU5MiAtMC4yNDU4NywtMC41NTI2MDQyIDAuMTU1NzUwMSwtMC4zMjc3NDk0IDAuMjg0ODgwMSwwLjA0NzY0IDAuNTgzNjUwMiwtMC4xNTgzMjA0IDAuMjk4Nzg5OCwtMC4yMDU5NTYgLTAuMDA2LC0wLjQ2MDIwOCAwLjM1NTkwOTksLTAuNDg5MTkgMC4wMjI0OTksLTAuMDAxOCAwLjA0MjQsLTAuMDAyMyAwLjA2MDQsLTAuMDAxOCB6IG0gMi4zMzU5NjA1LDAuMzYyNzk0IGMgMC40ODMzNSwwLjAxMzU4IDAuMDE0NiwwLjQ2NzIxODQgMC40NTU5NiwwLjY2NDc2NjQgMC40NDE0NCwwLjE5NzU0ODIgMC40NjcxNCwtMC40NTQxMDMgMC43OTkzNywtMC4xMDI2NjkgMC4zMzIyMSwwLjM1MTQzMjIgLTAuMzE5OTcsMC4zNDA2NDAyIC0wLjE0NzUzLDAuNzkyNDU1MiAwLjE3MjQzLDAuNDUxODEzIDAuNjUxNjMsMC4wMDkyIDAuNjM4MDIsMC40OTI2NCAtMC4wMTM3LDAuNDgzNDExIC0wLjQ2NzIzLDAuMDE0NTYgLTAuNjY0NzcsMC40NTU5NzcgLTAuMTk3NTUsMC40NDE0MTIgMC40NTQxLDAuNDY3MTQzIDAuMTAyNjYsMC43OTkzNTcgLTAuMzUxNDEsMC4zMzIyMTIgLTAuMzQwMjEsLTAuMzE5OTc0IC0wLjc5MjAyLC0wLjE0NzUzNCAtMC40NTE4MywwLjE3MjQzNyAtMC4wMDksMC42NTE2MSAtMC40OTI2NSwwLjYzODAxOSAtMC40ODMzOSwtMC4wMTM1OCAtMC4wMTQ2LC0wLjQ2NzIxNiAtMC40NTU5NiwtMC42NjQ3NjQgLTAuNDQxNDEwNSwtMC4xOTc1NTEgLTAuNDY3NTgwNSwwLjQ1NDEwMiAtMC43OTk3OTA5LDAuMTAyNjY5IC0wLjMzMjIwOTcsLTAuMzUxNDMxIDAuMzE5OTgwNCwtMC4zNDAyMDkgMC4xNDc1NCwtMC43OTIwMjUgLTAuMTcyNDUsLTAuNDUxODE1IC0wLjY1MTYyOTYsLTAuMDA5MiAtMC42MzgwMjk1LC0wLjQ5MjY0MiAwLjAxMzY5OSwtMC40ODM0MDggMC40NjcyMDk1LC0wLjAxNDk5IDAuNjY0Nzc5NSwtMC40NTY0MDUgMC4xOTc1MjA0LC0wLjQ0MTQxNCAtMC40NTQxMSwtMC40NjcxNDMgLTAuMTAyNjksLTAuNzk5MzU3MiAwLjM1MTQ1MDUsLTAuMzMyMjE0IDAuMzQwNjUwNSwwLjMxOTk3MTIgMC43OTI0NjA5LDAuMTQ3NTM0IDAuNDUxODQsLTAuMTcyNDQgMC4wMDksLTAuNjUxNjExNCAwLjQ5MjY1LC0wLjYzODAyMTQgeiBNIDguNTg4ODkwMyw5LjUxNzIwMjggYyAtMC4yOTM2NDk5LDllLTUgLTAuNTMxNjA5OCwwLjIzODI0OSAtMC41MzE0NDk4LDAuNTMxODk4MiA3Ljk5ZS01LDAuMjkzNDgxIDAuMjM3OTcwMSwwLjUzMTM3NyAwLjUzMTQ0OTgsMC41MzE0NjcgMC4yOTM2NjAyLDEuNTllLTQgMC41MzE4MjAyLC0wLjIzNzgxIDAuNTMxOSwtMC41MzE0NjcgMS42MDFlLTQsLTAuMjkzODI1MiAtMC4yMzgwNjk5LC0wLjUzMjA1NzIgLTAuNTMxOSwtMC41MzE4OTgyIHogbSAyLjI2NDM2MDcsMC40ODA1NjM0IGMgLTAuNTg2ODksLTEuOTZlLTQgLTEuMDYyNzEwOSwwLjQ3NTYxNDggLTEuMDYyNTIwOSwxLjA2MjUwMjggNWUtNSwwLjU4NjcxOSAwLjQ3NTgwMDksMS4wNjIyNjcgMS4wNjI1MjA5LDEuMDYyMDcxIDAuNTg2NTQsLTUuOGUtNSAxLjA2MjAxLC0wLjQ3NTUzMSAxLjA2MjA2LC0xLjA2MjA3MSAxLjllLTQsLTAuNTg2NzA4IC0wLjQ3NTM1LC0xLjA2MjQ0NDggLTEuMDYyMDYsLTEuMDYyNTAyOCB6IiBzdHlsZT0ib3BhY2l0eToxO2ZpbGw6I2ZmZmZmZjtmaWxsLW9wYWNpdHk6MTtzdHJva2U6I2VlZWVlZTtzdHJva2Utd2lkdGg6MDtzdHJva2UtbWl0ZXJsaW1pdDoxMDtzdHJva2UtZGFzaGFycmF5Om5vbmU7c3Ryb2tlLWRhc2hvZmZzZXQ6MTEuMjM2NDIzNDk7c3Ryb2tlLW9wYWNpdHk6MSIgaW5rc2NhcGU6Y29ubmVjdG9yLWN1cnZhdHVyZT0iMCIvPiYjeGE7ICA8L2c+JiN4YTs8L3N2Zz4=;strokeWidth=2;fontColor=#000000;" parent="1" vertex="1">
          <mxGeometry x="904" y="540" width="65" height="65" as="geometry" />
        </mxCell>
        <mxCell id="2e-IZ0hc81l0EhctSPzu-10" value="NAT Gateway" style="sketch=0;outlineConnect=0;fontColor=#232F3E;gradientColor=none;fillColor=#4D27AA;strokeColor=none;dashed=0;verticalLabelPosition=bottom;verticalAlign=top;align=center;html=1;fontSize=12;fontStyle=0;aspect=fixed;pointerEvents=1;shape=mxgraph.aws4.nat_gateway;strokeWidth=2;" vertex="1" parent="1">
          <mxGeometry x="570" y="428" width="64" height="64" as="geometry" />
        </mxCell>
        <mxCell id="2e-IZ0hc81l0EhctSPzu-11" value="" style="edgeStyle=none;orthogonalLoop=1;jettySize=auto;html=1;rounded=1;fontColor=#000000;endArrow=none;endFill=0;" edge="1" parent="1" target="2e-IZ0hc81l0EhctSPzu-10">
          <mxGeometry width="80" relative="1" as="geometry">
            <mxPoint x="500" y="460" as="sourcePoint" />
            <mxPoint x="580" y="468.4848484848485" as="targetPoint" />
          </mxGeometry>
        </mxCell>
        <mxCell id="2e-IZ0hc81l0EhctSPzu-12" value="" style="edgeStyle=none;orthogonalLoop=1;jettySize=auto;html=1;rounded=1;fontColor=#000000;endArrow=none;endFill=0;" edge="1" parent="1">
          <mxGeometry width="80" relative="1" as="geometry">
            <mxPoint x="632" y="460" as="sourcePoint" />
            <mxPoint x="709" y="460" as="targetPoint" />
          </mxGeometry>
        </mxCell>
        <mxCell id="2e-IZ0hc81l0EhctSPzu-15" value="Internet Gateway" style="sketch=0;outlineConnect=0;fontColor=#232F3E;gradientColor=none;fillColor=#4D27AA;strokeColor=none;dashed=0;verticalLabelPosition=bottom;verticalAlign=top;align=center;html=1;fontSize=12;fontStyle=0;aspect=fixed;pointerEvents=1;shape=mxgraph.aws4.internet_gateway;strokeWidth=2;" vertex="1" parent="1">
          <mxGeometry x="570" y="273" width="64" height="64" as="geometry" />
        </mxCell>
        <mxCell id="2e-IZ0hc81l0EhctSPzu-16" value="" style="edgeStyle=none;orthogonalLoop=1;jettySize=auto;html=1;rounded=1;fontColor=#000000;endArrow=none;endFill=0;exitX=1;exitY=0.5;exitDx=0;exitDy=0;" edge="1" parent="1" source="G5toYubQoZsCjo8l9rVy-10" target="2e-IZ0hc81l0EhctSPzu-15">
          <mxGeometry width="80" relative="1" as="geometry">
            <mxPoint x="520" y="350" as="sourcePoint" />
            <mxPoint x="597" y="350" as="targetPoint" />
          </mxGeometry>
        </mxCell>
      </root>
    </mxGraphModel>
  </diagram>
</mxfile>
